<?xml version="1.0" encoding="UTF-8" standalone="no"?>
<svg
   width="300"
   height="184"
   viewBox="0 0 79.374998 48.683333"
   version="1.1"
   id="svg8"
   inkscape:version="1.1.2 (b8e25be833, 2022-02-05)"
   sodipodi:docname="biscoito.svg"
   xmlns:inkscape="http://www.inkscape.org/namespaces/inkscape"
   xmlns:sodipodi="http://sodipodi.sourceforge.net/DTD/sodipodi-0.dtd"
   xmlns="http://www.w3.org/2000/svg"
   xmlns:svg="http://www.w3.org/2000/svg"
   xmlns:rdf="http://www.w3.org/1999/02/22-rdf-syntax-ns#"
   xmlns:cc="http://creativecommons.org/ns#"
   xmlns:dc="http://purl.org/dc/elements/1.1/">
  <defs
     id="defs2" />
  <sodipodi:namedview
     id="base"
     pagecolor="#ffffff"
     bordercolor="#666666"
     borderopacity="1.0"
     inkscape:pageopacity="0.0"
     inkscape:pageshadow="2"
     inkscape:zoom="1.5005594"
     inkscape:cx="147.94483"
     inkscape:cy="52.313824"
     inkscape:document-units="cm"
     inkscape:current-layer="layer4"
     inkscape:document-rotation="0"
     showgrid="false"
     units="px"
     inkscape:pagecheckerboard="true"
     inkscape:showpageshadow="false"
     inkscape:window-width="1920"
     inkscape:window-height="1017"
     inkscape:window-x="-8"
     inkscape:window-y="-8"
     inkscape:window-maximized="1" />
  <metadata
     id="metadata5">
    <rdf:RDF>
      <cc:Work
         rdf:about="">
        <dc:format>image/svg+xml</dc:format>
        <dc:type
           rdf:resource="http://purl.org/dc/dcmitype/StillImage" />
      </cc:Work>
    </rdf:RDF>
  </metadata>
  <g
     inkscape:groupmode="layer"
     id="layer5"
     inkscape:label="papel"
     style="display:inline;opacity:0.559426">
    <g
       id="g10827"
       transform="matrix(0.90535909,0,0,0.90518174,-126.09394,-159.44932)"
       style="stroke-width:1.10463">
      <path
         style="fill:#ffffff;stroke:#000000;stroke-width:0.292271px;stroke-linecap:butt;stroke-linejoin:miter;stroke-opacity:1"
         d="m 217.2307,181.4365 9.52145,3.17382 c 0,0 -2.83081,17.28078 -21.15878,20.6298 -18.32796,3.34903 -37.55407,-15.87085 -42.84376,-3.17559 l -13.22699,14.28217 -10.05042,-6.34585 c 0,0 13.75577,-19.92334 22.74825,-19.39436 8.99248,0.52896 41.78601,15.69157 55.01025,-9.16999 z"
         id="path9547"
         sodipodi:nodetypes="ccscccsc" />
      <path
         sodipodi:type="star"
         style="opacity:0.651639;fill:#0000ff;fill-opacity:1;fill-rule:evenodd;stroke:none;stroke-width:4.33131;stroke-miterlimit:4;stroke-dasharray:none;stop-color:#000000"
         id="path10427"
         inkscape:flatsided="false"
         sodipodi:sides="5"
         sodipodi:cx="563.12335"
         sodipodi:cy="777.70996"
         sodipodi:r1="15.225868"
         sodipodi:r2="7.6129341"
         sodipodi:arg1="1.1659045"
         sodipodi:arg2="1.7942231"
         inkscape:rounded="-3.46945e-18"
         inkscape:randomized="0"
         d="m 569.12112,791.70474 -7.68458,-6.57107 -9.7696,2.60513 3.87479,-9.33905 -5.4966,-8.48641 10.07934,0.79923 6.37251,-7.85002 2.35458,9.83299 9.43503,3.63483 -8.62413,5.2779 z"
         transform="matrix(0.26458333,0,0,0.26458333,0,2.1166667)"
         inkscape:transform-center-x="-0.27582832"
         inkscape:transform-center-y="-0.11279943" />
      <path
         sodipodi:type="star"
         style="opacity:0.651639;fill:#0000ff;fill-opacity:1;fill-rule:evenodd;stroke:none;stroke-width:4.33131;stroke-miterlimit:4;stroke-dasharray:none;stop-color:#000000"
         id="path10429"
         inkscape:flatsided="false"
         sodipodi:sides="5"
         sodipodi:cx="585.11511"
         sodipodi:cy="741.72339"
         sodipodi:r1="7.2084141"
         sodipodi:r2="3.604207"
         sodipodi:arg1="2.1587989"
         sodipodi:arg2="2.7871175"
         inkscape:rounded="-3.46945e-18"
         inkscape:randomized="0"
         d="m 581.1166,747.72115 0.61838,-4.74675 -3.55969,-3.20041 4.70552,-0.87871 1.94377,-4.37445 2.28979,4.20368 4.761,0.49685 -3.29035,3.47673 0.9987,4.68152 -4.32334,-2.05494 z"
         transform="matrix(0.26458333,0,0,0.26458333,0.18701892,1.8701892)"
         inkscape:transform-center-x="0.023756928"
         inkscape:transform-center-y="-0.1593874" />
      <path
         sodipodi:type="star"
         style="opacity:0.651639;fill:#0000ff;fill-opacity:1;fill-rule:evenodd;stroke:none;stroke-width:4.33131;stroke-miterlimit:4;stroke-dasharray:none;stop-color:#000000"
         id="path10431"
         inkscape:flatsided="false"
         sodipodi:sides="5"
         sodipodi:cx="811.03088"
         sodipodi:cy="715.73309"
         sodipodi:r1="6.3221974"
         sodipodi:r2="3.1610987"
         sodipodi:arg1="1.2490458"
         sodipodi:arg2="1.8773643"
         inkscape:rounded="-3.46945e-18"
         inkscape:randomized="0"
         d="m 813.03014,721.73086 -2.95324,-2.98405 -4.13242,0.7411 1.9254,-3.73082 -1.98182,-3.70116 4.1432,0.67828 2.90759,-3.02854 0.63524,4.15002 3.77881,1.82941 -3.7506,1.88657 z"
         transform="scale(0.26458333)"
         inkscape:transform-center-x="-0.15599318"
         inkscape:transform-center-y="-0.0039270825" />
      <path
         sodipodi:type="star"
         style="opacity:0.651639;fill:#0000ff;fill-opacity:1;fill-rule:evenodd;stroke:none;stroke-width:5.97679;stroke-miterlimit:4;stroke-dasharray:none;stop-color:#000000"
         id="path10595"
         inkscape:flatsided="false"
         sodipodi:sides="5"
         sodipodi:cx="563.12335"
         sodipodi:cy="777.70996"
         sodipodi:r1="15.225868"
         sodipodi:r2="7.6129341"
         sodipodi:arg1="1.1659045"
         sodipodi:arg2="1.7942231"
         inkscape:rounded="-3.46945e-18"
         inkscape:randomized="0"
         d="m 569.12112,791.70474 -7.68458,-6.57107 -9.7696,2.60513 3.87479,-9.33905 -5.4966,-8.48641 10.07934,0.79923 6.37251,-7.85002 2.35458,9.83299 9.43503,3.63483 -8.62413,5.2779 z"
         transform="matrix(0.19173977,0,0,0.19173977,114.34578,37.855391)"
         inkscape:transform-center-x="-0.19988413"
         inkscape:transform-center-y="-0.081747004" />
      <path
         sodipodi:type="star"
         style="opacity:0.651639;fill:#0000ff;fill-opacity:1;fill-rule:evenodd;stroke:none;stroke-width:3.34746;stroke-miterlimit:4;stroke-dasharray:none;stop-color:#000000"
         id="path10597"
         inkscape:flatsided="false"
         sodipodi:sides="5"
         sodipodi:cx="811.03088"
         sodipodi:cy="715.73309"
         sodipodi:r1="6.3221974"
         sodipodi:r2="3.1610987"
         sodipodi:arg1="1.2490458"
         sodipodi:arg2="1.8773643"
         inkscape:rounded="-3.46945e-18"
         inkscape:randomized="0"
         d="m 813.03014,721.73086 -2.95324,-2.98405 -4.13242,0.7411 1.9254,-3.73082 -1.98182,-3.70116 4.1432,0.67828 2.90759,-3.02854 0.63524,4.15002 3.77881,1.82941 -3.7506,1.88657 z"
         transform="matrix(0.34234466,0,0,0.34234466,-60.235684,-49.951129)"
         inkscape:transform-center-x="-0.20183683"
         inkscape:transform-center-y="-0.0050834612" />
    </g>
  </g>
  <g
     inkscape:groupmode="layer"
     id="layer2"
     inkscape:label="biscoito"
     style="display:inline;opacity:1">
    <g
       id="g10819"
       transform="matrix(0.90535909,0,0,0.90518174,-126.09394,-159.44932)"
       style="stroke-width:1.10463">
      <path
         style="display:inline;fill:#efab4b;fill-opacity:1;stroke:#000000;stroke-width:1.14601;stroke-linecap:butt;stroke-linejoin:miter;stroke-miterlimit:4;stroke-dasharray:none;stroke-opacity:1"
         d="m 182.45147,209.40089 c 2.10505,-0.26313 6.79857,-9.31892 8.419,-0.80181 2.4055,8.41899 16.4371,32.07234 22.4507,10.82442 6.0135,-21.24793 -8.60194,-42.88509 -24.0543,-42.49586 -25.08305,0.63182 -39.2886,27.6624 -25.6579,46.9058 13.6308,19.24341 23.51166,-18.60765 23.51166,-18.60765"
         id="path867"
         sodipodi:nodetypes="cccscc" />
      <g
         id="g10812"
         style="stroke-width:1.10463">
        <path
           style="opacity:0.141393;fill:#ffffff;stroke:none;stroke-width:0.292271px;stroke-linecap:butt;stroke-linejoin:miter;stroke-opacity:1"
           d="m 199.58105,180.50347 c 0,0 -5.14072,-4.4889 -12.67853,-3.29872 -7.53782,1.19018 -14.74032,5.00252 -16.72396,6.98615 -1.98363,1.98364 -8.20372,7.36214 -10.3196,14.89995 -2.11588,7.53782 -0.3306,14.6789 -0.3306,14.6789 0,0 4.21502,-36.08745 40.05269,-33.26628 z"
           id="path3117"
           sodipodi:nodetypes="cssscc" />
        <path
           style="opacity:0.190574;fill:#1a1a1a;stroke:none;stroke-width:0.292271px;stroke-linecap:butt;stroke-linejoin:miter;stroke-opacity:1"
           d="m 185.6779,208.58915 c 0,0 -4.67547,13.8394 -8.41585,16.7382 -3.74038,2.89879 0.18702,-8.35351 8.41585,-16.7382 z"
           id="path4536" />
        <path
           style="opacity:0.190574;fill:#4d4d4d;stroke:none;stroke-width:0.292271px;stroke-linecap:butt;stroke-linejoin:miter;stroke-opacity:1"
           d="m 212.29305,196.95294 c 0,0 -2.20389,-3.66925 -1.9394,-0.49543 0.26448,3.17381 1.72305,10.56334 1.32632,14.39837 -0.39672,3.83502 -3.73487,11.81624 -1.619,12.21297 2.11588,0.39673 3.60928,-5.81866 3.60928,-5.81866 0,0 1.92886,-11.30478 -1.3772,-20.29725 z"
           id="path4887"
           sodipodi:nodetypes="cssscc" />
      </g>
    </g>
  </g>
  <g
     inkscape:groupmode="layer"
     id="layer4"
     inkscape:label="face"
     style="display:inline;opacity:1">
    <g
       id="g10660"
       style="display:inline;stroke-width:1.10463"
       transform="matrix(0.90535909,0,0,0.90518174,-125.99054,-161.23165)">
      <g
         id="g10643"
         style="display:inline;opacity:1;stroke-width:1.10463">
        <ellipse
           style="opacity:1;fill:#000000;fill-opacity:1;fill-rule:evenodd;stroke:none;stroke-width:1.14601;stroke-miterlimit:4;stroke-dasharray:none;stop-color:#000000"
           id="path7194"
           cx="193.17862"
           cy="189.86044"
           rx="1.8518859"
           ry="1.8518864" />
        <ellipse
           style="opacity:1;fill:#ffffff;fill-opacity:1;fill-rule:evenodd;stroke:none;stroke-width:1.14601;stroke-miterlimit:4;stroke-dasharray:none;stop-color:#000000"
           id="ellipse7504"
           cx="192.71577"
           cy="189.3537"
           rx="0.59558362"
           ry="0.59558374" />
        <ellipse
           style="opacity:1;fill:#000000;fill-opacity:1;fill-rule:evenodd;stroke:none;stroke-width:1.14601;stroke-miterlimit:4;stroke-dasharray:none;stop-color:#000000"
           id="ellipse7524"
           cx="179.60173"
           cy="191.57959"
           rx="1.8518859"
           ry="1.8518864" />
        <ellipse
           style="opacity:1;fill:#ffffff;fill-opacity:1;fill-rule:evenodd;stroke:none;stroke-width:1.14601;stroke-miterlimit:4;stroke-dasharray:none;stop-color:#000000"
           id="ellipse7526"
           cx="179.13892"
           cy="191.07285"
           rx="0.59558362"
           ry="0.59558374" />
      </g>
      <path
         style="display:inline;fill:#1a1a1a;stroke:#000000;stroke-width:0.292271px;stroke-linecap:butt;stroke-linejoin:miter;stroke-opacity:1"
         d="m 178.09238,198.26852 c 0,0 1.65303,6.61212 8.66188,5.48806 7.00884,-1.12406 6.08315,-7.67006 6.08315,-7.67006 0,0 -9.71982,3.4383 -14.74503,2.182 z"
         id="path7561" />
      <path
         style="display:inline;fill:#ff00ff;stroke:none;stroke-width:0.292271px;stroke-linecap:butt;stroke-linejoin:miter;stroke-opacity:1"
         d="m 181.66292,202.83088 c 0,0 2.24812,1.19018 4.23176,0.85958 1.98364,-0.33061 1.98364,-0.33061 1.98364,-0.33061 0,0 1.65302,-0.46285 2.11587,-0.85957 0.46285,-0.39673 1.7412,-1.50977 1.84039,-1.87344 0.0992,-0.36366 0.0992,-0.36366 0.0992,-0.36366 0,0 -3.66973,-0.56203 -4.52931,0.36366 -0.85958,0.9257 -0.79345,0.9257 -0.79345,0.9257 0,0 -1.37753,-1.49875 -4.94808,1.27834 z"
         id="path7849" />
      <ellipse
         style="opacity:0.479508;fill:#ff0000;fill-opacity:0.602871;fill-rule:evenodd;stroke:none;stroke-width:1.19586;stroke-miterlimit:4;stroke-dasharray:none;stop-color:#000000"
         id="path8419"
         cx="23.1059"
         cy="253.77115"
         rx="1.6521189"
         ry="2.3885667"
         transform="matrix(0.97354964,-0.2284756,0.59536448,0.80345575,0,0)" />
      <ellipse
         style="opacity:0.479508;fill:#ff0000;fill-opacity:0.602871;fill-rule:evenodd;stroke:none;stroke-width:1.19586;stroke-miterlimit:4;stroke-dasharray:none;stop-color:#000000"
         id="ellipse8789"
         cx="-300.47769"
         cy="156.01709"
         rx="1.6521189"
         ry="2.3885667"
         transform="matrix(-0.97354964,-0.2284756,-0.59536448,0.80345575,0,0)" />
    </g>
  </g>
</svg>
