<?xml version="1.0" encoding="UTF-8" standalone="no"?>
<svg
   width="600"
   height="350"
   viewBox="0 0 158.75 92.604166"
   version="1.1"
   id="svg8"
   inkscape:version="1.1.2 (b8e25be833, 2022-02-05)"
   sodipodi:docname="card.svg"
   xmlns:inkscape="http://www.inkscape.org/namespaces/inkscape"
   xmlns:sodipodi="http://sodipodi.sourceforge.net/DTD/sodipodi-0.dtd"
   xmlns="http://www.w3.org/2000/svg"
   xmlns:svg="http://www.w3.org/2000/svg"
   xmlns:rdf="http://www.w3.org/1999/02/22-rdf-syntax-ns#"
   xmlns:cc="http://creativecommons.org/ns#"
   xmlns:dc="http://purl.org/dc/elements/1.1/">
  <defs
     id="defs2">
    <rect
       x="-6.6641814"
       y="201.25828"
       width="331.87623"
       height="83.968685"
       id="rect14368" />
  </defs>
  <sodipodi:namedview
     id="base"
     pagecolor="#ffffff"
     bordercolor="#666666"
     borderopacity="1.0"
     inkscape:pageopacity="0.0"
     inkscape:pageshadow="2"
     inkscape:zoom="0.7502797"
     inkscape:cx="301.221"
     inkscape:cy="281.89487"
     inkscape:document-units="cm"
     inkscape:current-layer="layer4"
     inkscape:document-rotation="0"
     showgrid="false"
     units="px"
     inkscape:pagecheckerboard="true"
     inkscape:showpageshadow="false"
     inkscape:window-width="1920"
     inkscape:window-height="1017"
     inkscape:window-x="-8"
     inkscape:window-y="-8"
     inkscape:window-maximized="1"
     showborder="true" />
  <metadata
     id="metadata5">
    <rdf:RDF>
      <cc:Work
         rdf:about="">
        <dc:format>image/svg+xml</dc:format>
        <dc:type
           rdf:resource="http://purl.org/dc/dcmitype/StillImage" />
      </cc:Work>
    </rdf:RDF>
  </metadata>
  <g
     inkscape:groupmode="layer"
     id="layer5"
     inkscape:label="papel"
     style="display:inline;opacity:0.559426" />
  <g
     inkscape:groupmode="layer"
     id="layer2"
     inkscape:label="biscoito"
     style="display:inline;opacity:1">
    <rect
       style="opacity:1;fill:#d9d9e9;fill-rule:evenodd;stroke-width:1.03743;stop-color:#000000;fill-opacity:1"
       id="rect26146"
       width="158.75"
       height="92.604164"
       x="-2.8571429e-07"
       y="1.1048991e-06"
       ry="0"
       inkscape:export-filename="C:\Projs\biscoito\img\card.png"
       inkscape:export-xdpi="96"
       inkscape:export-ydpi="96" />
    <g
       aria-label="BISCOITO DA SORTE"
       id="text2102"
       style="font-size:8.46667px;line-height:1.25;-inkscape-font-specification:'sans-serif, Normal';text-align:center;text-anchor:middle;stroke-width:0.264583"
       inkscape:export-filename="C:\Projs\biscoito\img\card.png"
       inkscape:export-xdpi="96"
       inkscape:export-ydpi="96">
      <path
         d="m 3.3664432,8.5882376 h 1.7272007 q 1.1260671,0 1.7102674,0.3386668 0.5842002,0.3386668 0.5842002,1.1599336 0,0.5334 -0.2963335,0.889001 -0.2963334,0.347133 -0.8551336,0.448733 v 0.04233 q 0.3810001,0.06773 0.6858002,0.228601 0.3132668,0.160866 0.4910669,0.4572 0.1778001,0.296333 0.1778001,0.762 0,0.821267 -0.5672669,1.270001 Q 6.4652445,14.63344 5.4915774,14.63344 H 3.3664432 Z M 4.1284435,11.162105 H 5.246044 q 0.7704669,0 1.0583337,-0.245533 0.2963335,-0.254 0.2963335,-0.745067 0,-0.4995336 -0.3556002,-0.7112004 Q 5.8979776,9.2401712 5.1275106,9.2401712 H 4.1284435 Z m 0,0.635001 v 2.192867 H 5.347644 q 0.8043337,0 1.1176005,-0.313267 0.3132668,-0.313266 0.3132668,-0.821267 0,-0.474133 -0.3302002,-0.762 -0.3217334,-0.296333 -1.1599338,-0.296333 z"
         id="path28296" />
      <path
         d="M 10.571576,14.63344 H 8.3871752 V 14.193173 L 9.0983755,14.032306 V 9.1978379 L 8.3871752,9.0285045 V 8.5882376 H 10.571576 V 9.0285045 L 9.8603758,9.1978379 v 4.8344681 l 0.7112002,0.160867 z"
         id="path28298" />
      <path
         d="m 15.168984,13.016306 q 0,0.804334 -0.584201,1.253067 -0.5842,0.448734 -1.5748,0.448734 -0.508,0 -0.939801,-0.0762 -0.4318,-0.0762 -0.719667,-0.211667 v -0.728134 q 0.3048,0.135467 0.753534,0.245534 0.4572,0.110066 0.9398,0.110066 0.668867,0 1.016001,-0.262466 0.347133,-0.262467 0.347133,-0.711201 0,-0.296333 -0.127,-0.499533 -0.127,-0.2032 -0.440267,-0.372534 -0.313266,-0.169333 -0.855133,-0.372533 -0.778934,-0.2794 -1.168401,-0.6858 -0.389467,-0.406401 -0.389467,-1.109134 0,-0.4741337 0.245534,-0.8212671 0.245533,-0.3471335 0.677333,-0.5334002 0.431801,-0.1862668 1.007534,-0.1862668 0.491067,0 0.905934,0.093133 0.414867,0.093133 0.762,0.2455334 l -0.237067,0.6519336 q -0.313266,-0.1354667 -0.6858,-0.2286001 -0.372533,-0.093133 -0.762,-0.093133 -0.567267,0 -0.855134,0.2455335 -0.287867,0.2370667 -0.287867,0.6350007 0,0.3048 0.127,0.508 0.127,0.2032 0.414867,0.372533 0.287867,0.160867 0.778934,0.338667 0.5334,0.194733 0.897467,0.423334 0.372533,0.220133 0.5588,0.5334 0.194734,0.313267 0.194734,0.7874 z"
         id="path28300" />
      <path
         d="m 18.978983,9.1724378 q -0.973667,0 -1.532467,0.6519336 -0.5588,0.6519336 -0.5588,1.7864676 0,1.126067 0.516467,1.786467 0.524933,0.651934 1.566334,0.651934 0.389466,0 0.745067,-0.06773 0.3556,-0.06773 0.702733,-0.169333 v 0.6604 q -0.338667,0.127 -0.702733,0.186267 -0.355601,0.05927 -0.855134,0.05927 -0.922867,0 -1.540934,-0.381 -0.618067,-0.381001 -0.931334,-1.083734 -0.3048,-0.702734 -0.3048,-1.651001 0,-0.9144 0.3302,-1.6086672 0.338667,-0.7027336 0.990601,-1.0922004 0.651933,-0.3979335 1.583267,-0.3979335 0.956734,0 1.667934,0.3556002 l -0.3048,0.6434669 Q 20.071184,9.3756379 19.72405,9.2740379 19.385383,9.1724378 18.978983,9.1724378 Z"
         id="path28302" />
      <path
         d="m 26.844515,11.602372 q 0,0.939801 -0.321733,1.642534 -0.313267,0.694267 -0.9398,1.083734 -0.618067,0.389467 -1.524001,0.389467 -0.9398,0 -1.566334,-0.389467 -0.618067,-0.389467 -0.922867,-1.092201 -0.3048,-0.702733 -0.3048,-1.642534 0,-0.922867 0.3048,-1.6171335 0.3048,-0.7027336 0.922867,-1.0922004 0.626534,-0.3894669 1.574801,-0.3894669 0.905933,0 1.524,0.3894669 0.618067,0.3810001 0.931334,1.0837337 0.321733,0.6942672 0.321733,1.6340672 z m -4.775202,0 q 0,1.143001 0.482601,1.803401 0.4826,0.651933 1.507067,0.651933 1.024467,0 1.498601,-0.651933 0.4826,-0.6604 0.4826,-1.803401 0,-1.143 -0.474134,-1.7864672 -0.474133,-0.6519336 -1.4986,-0.6519336 -1.032934,0 -1.515534,0.6519336 -0.482601,0.6434672 -0.482601,1.7864672 z"
         id="path28304" />
      <path
         d="M 29.884051,14.63344 H 27.69965 v -0.440267 l 0.711201,-0.160867 V 9.1978379 L 27.69965,9.0285045 V 8.5882376 h 2.184401 v 0.4402669 l -0.7112,0.1693334 v 4.8344681 l 0.7112,0.160867 z"
         id="path28306" />
      <path
         d="m 32.965925,14.63344 h -0.762 V 9.2571045 H 30.315857 V 8.5882376 h 4.529669 v 0.6688669 h -1.879601 z"
         id="path28308" />
      <path
         d="m 40.865323,11.602372 q 0,0.939801 -0.321734,1.642534 -0.313267,0.694267 -0.9398,1.083734 -0.618067,0.389467 -1.524001,0.389467 -0.9398,0 -1.566334,-0.389467 -0.618067,-0.389467 -0.922867,-1.092201 -0.3048,-0.702733 -0.3048,-1.642534 0,-0.922867 0.3048,-1.6171335 0.3048,-0.7027336 0.922867,-1.0922004 0.626534,-0.3894669 1.574801,-0.3894669 0.905934,0 1.524,0.3894669 0.618067,0.3810001 0.931334,1.0837337 0.321734,0.6942672 0.321734,1.6340672 z m -4.775202,0 q 0,1.143001 0.4826,1.803401 0.4826,0.651933 1.507067,0.651933 1.024467,0 1.498601,-0.651933 0.4826,-0.6604 0.4826,-1.803401 0,-1.143 -0.474134,-1.7864672 -0.474133,-0.6519336 -1.4986,-0.6519336 -1.032934,0 -1.515534,0.6519336 -0.4826,0.6434672 -0.4826,1.7864672 z"
         id="path28310" />
      <path
         d="m 49.247331,11.551572 q 0,1.532467 -0.8382,2.311401 -0.829734,0.770467 -2.319868,0.770467 H 44.404396 V 8.5882376 h 1.862667 q 0.905934,0 1.574801,0.3386668 0.677333,0.3386668 1.0414,0.9990671 0.364067,0.6604005 0.364067,1.6256005 z m -0.804334,0.0254 q 0,-1.210734 -0.601133,-1.7695339 -0.592667,-0.5672669 -1.684868,-0.5672669 h -0.9906 v 4.7413348 h 0.821267 q 2.455334,0 2.455334,-2.404534 z"
         id="path28312" />
      <path
         d="m 54.20879,14.63344 -0.728134,-1.871134 h -2.396068 l -0.719667,1.871134 h -0.770467 l 2.362201,-6.0706024 h 0.685801 L 54.99619,14.63344 Z m -0.956734,-2.548468 -0.677334,-1.8288 q -0.0254,-0.06773 -0.08467,-0.245534 -0.05927,-0.1777999 -0.118534,-0.3640666 -0.0508,-0.1947334 -0.08467,-0.2963335 -0.06773,0.2624668 -0.143934,0.5164669 -0.06773,0.2455332 -0.118533,0.3894672 l -0.6858,1.8288 z"
         id="path28314" />
      <path
         d="m 61.456261,13.016306 q 0,0.804334 -0.5842,1.253067 -0.584201,0.448734 -1.574801,0.448734 -0.508,0 -0.9398,-0.0762 -0.431801,-0.0762 -0.719667,-0.211667 v -0.728134 q 0.3048,0.135467 0.753533,0.245534 0.4572,0.110066 0.939801,0.110066 0.668867,0 1.016,-0.262466 0.347133,-0.262467 0.347133,-0.711201 0,-0.296333 -0.127,-0.499533 -0.127,-0.2032 -0.440266,-0.372534 -0.313267,-0.169333 -0.855134,-0.372533 -0.778934,-0.2794 -1.168401,-0.6858 -0.389466,-0.406401 -0.389466,-1.109134 0,-0.4741337 0.245533,-0.8212671 0.245533,-0.3471335 0.677334,-0.5334002 0.4318,-0.1862668 1.007533,-0.1862668 0.491067,0 0.905934,0.093133 0.414867,0.093133 0.762,0.2455334 L 61.075261,9.4941713 Q 60.761994,9.3587046 60.38946,9.2655712 q -0.372533,-0.093133 -0.762,-0.093133 -0.567267,0 -0.855134,0.2455335 -0.287866,0.2370667 -0.287866,0.6350007 0,0.3048 0.127,0.508 0.127,0.2032 0.414866,0.372533 0.287867,0.160867 0.778934,0.338667 0.5334,0.194733 0.897467,0.423334 0.372534,0.220133 0.5588,0.5334 0.194734,0.313267 0.194734,0.7874 z"
         id="path28316" />
      <path
         d="m 67.950196,11.602372 q 0,0.939801 -0.321734,1.642534 -0.313266,0.694267 -0.9398,1.083734 -0.618067,0.389467 -1.524001,0.389467 -0.9398,0 -1.566334,-0.389467 -0.618066,-0.389467 -0.922867,-1.092201 -0.3048,-0.702733 -0.3048,-1.642534 0,-0.922867 0.3048,-1.6171335 0.304801,-0.7027336 0.922867,-1.0922004 0.626534,-0.3894669 1.574801,-0.3894669 0.905934,0 1.524001,0.3894669 0.618067,0.3810001 0.931333,1.0837337 0.321734,0.6942672 0.321734,1.6340672 z m -4.775202,0 q 0,1.143001 0.4826,1.803401 0.4826,0.651933 1.507067,0.651933 1.024467,0 1.498601,-0.651933 0.4826,-0.6604 0.4826,-1.803401 0,-1.143 -0.474133,-1.7864672 -0.474134,-0.6519336 -1.498601,-0.6519336 -1.032934,0 -1.515534,0.6519336 -0.4826,0.6434672 -0.4826,1.7864672 z"
         id="path28318" />
      <path
         d="m 70.955863,8.5882376 q 1.126067,0 1.659467,0.4318002 0.541867,0.4233335 0.541867,1.2869342 0,0.4826 -0.1778,0.804333 -0.1778,0.321734 -0.4572,0.516467 -0.270933,0.194734 -0.575733,0.296334 l 1.659467,2.709334 H 72.71693 l -1.464733,-2.497668 h -1.202268 v 2.497668 h -0.762 V 8.5882376 Z m -0.04233,0.6604003 h -0.863601 v 2.2436671 h 0.905934 q 0.7366,0 1.075267,-0.287866 0.338667,-0.296334 0.338667,-0.863601 0,-0.5926666 -0.3556,-0.8382 -0.3556,-0.2540001 -1.100667,-0.2540001 z"
         id="path28320" />
      <path
         d="m 76.467662,14.63344 h -0.762 V 9.2571045 H 73.817595 V 8.5882376 h 4.529668 v 0.6688669 h -1.879601 z"
         id="path28322" />
      <path
         d="M 82.639862,14.63344 H 79.261661 V 8.5882376 h 3.378201 v 0.6688669 h -2.616201 v 1.8880675 h 2.463801 v 0.6604 h -2.463801 v 2.159001 h 2.616201 z"
         id="path28324" />
    </g>
    <g
       aria-label="'A mente que
se abre a uma nova ideia
jamais voltará ao seu tamanho original.'"
       id="text3830"
       style="font-size:6.35px;line-height:1.25;-inkscape-font-specification:'sans-serif, Normal';text-align:center;text-anchor:middle;stroke-width:0.264583"
       inkscape:export-filename="C:\Projs\biscoito\img\card.png"
       inkscape:export-xdpi="96"
       inkscape:export-ydpi="96">
      <path
         d="m 5.6197168,55.593469 -0.127,1.6383 h -0.34925 l -0.127,-1.6383 z"
         style="text-align:start;text-anchor:start"
         id="path28380" />
      <path
         d="m 9.0487212,60.127369 -0.5461,-1.40335 h -1.79705 l -0.53975,1.40335 h -0.57785 l 1.77165,-4.55295 h 0.51435 l 1.7652999,4.55295 z m -0.71755,-1.91135 -0.508,-1.3716 q -0.01905,-0.0508 -0.0635,-0.18415 -0.04445,-0.13335 -0.0889,-0.27305 -0.0381,-0.14605 -0.0635,-0.22225 -0.0508,0.19685 -0.10795,0.38735 -0.0508,0.18415 -0.0889,0.2921 l -0.51435,1.3716 z"
         style="text-align:start;text-anchor:start"
         id="path28382" />
      <path
         d="m 15.570172,56.660269 q 0.57785,0 0.8636,0.29845 0.28575,0.29845 0.28575,0.9525 v 2.21615 h -0.55245 v -2.19075 q 0,-0.80645 -0.69215,-0.80645 -0.4953,0 -0.7112,0.28575 -0.20955,0.28575 -0.20955,0.83185 v 1.8796 h -0.55245 v -2.19075 q 0,-0.80645 -0.6985,-0.80645 -0.51435,0 -0.7112,0.3175 -0.19685,0.3175 -0.19685,0.9144 v 1.7653 h -0.5588 v -3.4036 h 0.45085 l 0.08255,0.46355 h 0.03175 q 0.15875,-0.2667 0.42545,-0.3937 0.27305,-0.13335 0.57785,-0.13335 0.8001,0 1.0414,0.5715 h 0.03175 q 0.17145,-0.2921 0.46355,-0.4318 0.2921,-0.1397 0.62865,-0.1397 z"
         style="text-align:start;text-anchor:start"
         id="path28384" />
      <path
         d="m 19.088069,56.660269 q 0.4318,0 0.7493,0.1905 0.3175,0.1905 0.4826,0.53975 0.17145,0.3429 0.17145,0.80645 v 0.33655 h -2.33045 q 0.0127,0.57785 0.2921,0.88265 0.28575,0.29845 0.79375,0.29845 0.32385,0 0.5715,-0.05715 0.254,-0.0635 0.5207,-0.1778 v 0.48895 q -0.26035,0.1143 -0.51435,0.1651 -0.254,0.05715 -0.60325,0.05715 -0.48895,0 -0.85725,-0.19685 -0.3683,-0.19685 -0.57785,-0.5842 -0.2032,-0.38735 -0.2032,-0.95885 0,-0.5588 0.18415,-0.95885 0.1905,-0.40005 0.52705,-0.61595 0.3429,-0.2159 0.79375,-0.2159 z m -0.0064,0.4572 q -0.40005,0 -0.635,0.26035 -0.2286,0.254 -0.27305,0.7112 h 1.73355 q -0.0064,-0.4318 -0.2032,-0.6985 -0.19685,-0.27305 -0.6223,-0.27305 z"
         style="text-align:start;text-anchor:start"
         id="path28386" />
      <path
         d="m 22.993313,56.660269 q 0.6096,0 0.92075,0.29845 0.31115,0.29845 0.31115,0.9525 v 2.21615 h -0.55245 v -2.17805 q 0,-0.81915 -0.762,-0.81915 -0.56515,0 -0.78105,0.3175 -0.2159,0.3175 -0.2159,0.9144 v 1.7653 h -0.5588 v -3.4036 h 0.45085 l 0.08255,0.46355 h 0.03175 q 0.1651,-0.2667 0.4572,-0.3937 0.2921,-0.13335 0.61595,-0.13335 z"
         style="text-align:start;text-anchor:start"
         id="path28388" />
      <path
         d="m 26.415964,59.733669 q 0.127,0 0.26035,-0.01905 0.13335,-0.01905 0.2159,-0.0508 v 0.42545 q -0.0889,0.04445 -0.254,0.06985 -0.1651,0.03175 -0.3175,0.03175 -0.2667,0 -0.4953,-0.0889 -0.22225,-0.09525 -0.36195,-0.32385 -0.1397,-0.2286 -0.1397,-0.64135 v -1.9812 h -0.4826 v -0.2667 l 0.48895,-0.22225 0.22225,-0.7239 h 0.3302 v 0.78105 h 0.98425 v 0.4318 h -0.98425 v 1.9685 q 0,0.31115 0.14605,0.46355 0.1524,0.14605 0.38735,0.14605 z"
         style="text-align:start;text-anchor:start"
         id="path28390" />
      <path
         d="m 28.886113,56.660269 q 0.4318,0 0.7493,0.1905 0.3175,0.1905 0.4826,0.53975 0.17145,0.3429 0.17145,0.80645 v 0.33655 h -2.33045 q 0.0127,0.57785 0.2921,0.88265 0.28575,0.29845 0.79375,0.29845 0.32385,0 0.5715,-0.05715 0.254,-0.0635 0.5207,-0.1778 v 0.48895 q -0.26035,0.1143 -0.51435,0.1651 -0.254,0.05715 -0.60325,0.05715 -0.48895,0 -0.85725,-0.19685 -0.3683,-0.19685 -0.57785,-0.5842 -0.2032,-0.38735 -0.2032,-0.95885 0,-0.5588 0.18415,-0.95885 0.1905,-0.40005 0.52705,-0.61595 0.3429,-0.2159 0.79375,-0.2159 z m -0.0064,0.4572 q -0.40005,0 -0.635,0.26035 -0.2286,0.254 -0.27305,0.7112 h 1.73355 q -0.0063,-0.4318 -0.2032,-0.6985 -0.19685,-0.27305 -0.6223,-0.27305 z"
         style="text-align:start;text-anchor:start"
         id="path28392" />
      <path
         d="m 35.07101,61.651369 v -1.45415 q 0,-0.1143 0.0063,-0.2667 0.0064,-0.1524 0.0254,-0.26035 h -0.0381 q -0.14605,0.2159 -0.4064,0.3683 -0.254,0.1524 -0.6604,0.1524 -0.61595,0 -1.0033,-0.43815 -0.381,-0.4445 -0.381,-1.3208 0,-0.8763 0.38735,-1.3208 0.3937,-0.45085 1.016,-0.45085 0.40005,0 0.65405,0.1524 0.254,0.1524 0.4064,0.37465 h 0.0254 l 0.08255,-0.46355 h 0.4445 v 4.9276 z m -0.9652,-1.92405 q 0.5207,0 0.74295,-0.28575 0.22225,-0.2921 0.2286,-0.889 v -0.1143 q 0,-0.6477 -0.2159,-0.9779 -0.2159,-0.33655 -0.76835,-0.33655 -0.4572,0 -0.67945,0.36195 -0.22225,0.3556 -0.22225,0.95885 0,0.60325 0.22225,0.94615 0.22225,0.33655 0.69215,0.33655 z"
         style="text-align:start;text-anchor:start"
         id="path28394" />
      <path
         d="m 39.554108,56.723769 v 3.4036 h -0.4572 l -0.08255,-0.45085 h -0.0254 q -0.1651,0.2667 -0.4572,0.3937 -0.2921,0.12065 -0.6223,0.12065 -0.615949,0 -0.927099,-0.2921 -0.31115,-0.29845 -0.31115,-0.94615 v -2.22885 h 0.56515 v 2.19075 q 0,0.8128 0.755649,0.8128 0.56515,0 0.78105,-0.3175 0.22225,-0.3175 0.22225,-0.9144 v -1.77165 z"
         style="text-align:start;text-anchor:start"
         id="path28396" />
      <path
         d="m 41.94806,56.660269 q 0.4318,0 0.7493,0.1905 0.3175,0.1905 0.4826,0.53975 0.17145,0.3429 0.17145,0.80645 v 0.33655 h -2.33045 q 0.0127,0.57785 0.2921,0.88265 0.28575,0.29845 0.79375,0.29845 0.32385,0 0.5715,-0.05715 0.254,-0.0635 0.5207,-0.1778 v 0.48895 q -0.26035,0.1143 -0.51435,0.1651 -0.254,0.05715 -0.60325,0.05715 -0.48895,0 -0.85725,-0.19685 -0.3683,-0.19685 -0.57785,-0.5842 -0.2032,-0.38735 -0.2032,-0.95885 0,-0.5588 0.18415,-0.95885 0.1905,-0.40005 0.52705,-0.61595 0.3429,-0.2159 0.79375,-0.2159 z m -0.0063,0.4572 q -0.40005,0 -0.635,0.26035 -0.2286,0.254 -0.27305,0.7112 h 1.73355 q -0.0063,-0.4318 -0.2032,-0.6985 -0.19685,-0.27305 -0.6223,-0.27305 z"
         style="text-align:start;text-anchor:start"
         id="path28398" />
      <path
         d="m 7.3596168,67.125069 q 0,0.4953 -0.3683,0.7493 -0.3683,0.254 -0.9906,0.254 -0.3556,0 -0.61595,-0.05715 -0.254,-0.05715 -0.45085,-0.15875 v -0.508 q 0.2032,0.1016 0.48895,0.1905 0.2921,0.08255 0.59055,0.08255 0.42545,0 0.61595,-0.13335 0.1905,-0.1397 0.1905,-0.3683 0,-0.127 -0.06985,-0.2286 -0.06985,-0.1016 -0.254,-0.2032 -0.1778,-0.1016 -0.51435,-0.2286 -0.3302,-0.127 -0.56515,-0.254 -0.23495,-0.127 -0.36195,-0.3048 -0.127,-0.1778 -0.127,-0.4572 0,-0.4318 0.34925,-0.66675 0.3556,-0.23495 0.9271,-0.23495 0.31115,0 0.57785,0.0635 0.27305,0.0635 0.508,0.1651 l -0.1905,0.4445 q -0.2159,-0.0889 -0.45085,-0.1524 -0.23495,-0.0635 -0.4826,-0.0635 -0.3429,0 -0.52705,0.1143 -0.1778,0.10795 -0.1778,0.29845 0,0.14605 0.08255,0.2413 0.08255,0.09525 0.27305,0.1905 0.19685,0.09525 0.5207,0.2159 0.32385,0.12065 0.55245,0.24765 0.2286,0.127 0.34925,0.31115 0.12065,0.1778 0.12065,0.45085 z"
         style="text-align:start;text-anchor:start"
         id="path28400" />
      <path
         d="m 9.4995674,64.597769 q 0.4317999,0 0.7492996,0.1905 0.3175,0.1905 0.4826,0.53975 0.17145,0.3429 0.17145,0.80645 v 0.33655 H 8.5724674 q 0.0127,0.57785 0.2921,0.88265 0.28575,0.29845 0.79375,0.29845 0.3238499,0 0.5714996,-0.05715 0.254,-0.0635 0.5207,-0.1778 v 0.48895 q -0.26035,0.1143 -0.51435,0.1651 -0.2539997,0.05715 -0.6032496,0.05715 -0.48895,0 -0.85725,-0.19685 -0.3683,-0.19685 -0.57785,-0.5842 -0.2032,-0.38735 -0.2032,-0.95885 0,-0.5588 0.18415,-0.95885 0.1905,-0.40005 0.52705,-0.61595 0.3429,-0.2159 0.79375,-0.2159 z m -0.00635,0.4572 q -0.40005,0 -0.635,0.26035 -0.2286,0.254 -0.27305,0.7112 h 1.7335496 q -0.0063,-0.4318 -0.2032,-0.6985 -0.1968497,-0.27305 -0.6222996,-0.27305 z"
         style="text-align:start;text-anchor:start"
         id="path28402" />
      <path
         d="m 14.706564,64.604119 q 0.6223,0 0.92075,0.27305 0.29845,0.27305 0.29845,0.86995 v 2.31775 h -0.4064 l -0.10795,-0.4826 h -0.0254 q -0.22225,0.2794 -0.4699,0.41275 -0.24765,0.13335 -0.6731,0.13335 -0.46355,0 -0.76835,-0.2413 -0.3048,-0.24765 -0.3048,-0.76835 0,-0.508 0.40005,-0.78105 0.40005,-0.2794 1.2319,-0.3048 l 0.57785,-0.01905 v -0.2032 q 0,-0.42545 -0.18415,-0.59055 -0.18415,-0.1651 -0.5207,-0.1651 -0.2667,0 -0.508,0.08255 -0.2413,0.0762 -0.45085,0.1778 l -0.17145,-0.4191 q 0.22225,-0.12065 0.52705,-0.2032 0.3048,-0.0889 0.635,-0.0889 z m 0.66675,1.79705 -0.50165,0.01905 q -0.635,0.0254 -0.88265,0.2032 -0.2413,0.1778 -0.2413,0.50165 0,0.28575 0.17145,0.4191 0.1778,0.13335 0.45085,0.13335 0.42545,0 0.7112,-0.23495 0.2921,-0.2413 0.2921,-0.7366 z"
         style="text-align:start;text-anchor:start"
         id="path28404" />
      <path
         d="m 17.538669,63.238869 v 1.17475 q 0,0.2159 -0.0127,0.4064 -0.0064,0.18415 -0.01905,0.2921 h 0.03175 q 0.14605,-0.2159 0.40005,-0.36195 0.254,-0.14605 0.65405,-0.14605 0.635,0 1.016,0.4445 0.38735,0.43815 0.38735,1.31445 0,0.8763 -0.38735,1.3208 -0.38735,0.4445 -1.016,0.4445 -0.40005,0 -0.65405,-0.14605 -0.254,-0.14605 -0.40005,-0.34925 h -0.04445 l -0.1143,0.4318 h -0.40005 v -4.826 z m 0.95885,1.8288 q -0.5461,0 -0.75565,0.31115 -0.2032,0.31115 -0.2032,0.9652 v 0.0254 q 0,0.62865 0.2032,0.9652 0.20955,0.3302 0.76835,0.3302 0.4572,0 0.67945,-0.33655 0.2286,-0.33655 0.2286,-0.97155 0,-1.28905 -0.92075,-1.28905 z"
         style="text-align:start;text-anchor:start"
         id="path28406" />
      <path
         d="m 22.472617,64.597769 q 0.09525,0 0.2032,0.0127 0.10795,0.0064 0.19685,0.0254 l -0.06985,0.51435 q -0.08255,-0.01905 -0.18415,-0.03175 -0.1016,-0.0127 -0.18415,-0.0127 -0.26035,0 -0.48895,0.14605 -0.2286,0.1397 -0.3683,0.40005 -0.13335,0.254 -0.13335,0.5969 v 1.8161 h -0.5588 v -3.4036 h 0.4572 l 0.0635,0.6223 h 0.0254 q 0.15875,-0.2794 0.4191,-0.4826 0.2667,-0.2032 0.6223,-0.2032 z"
         style="text-align:start;text-anchor:start"
         id="path28408" />
      <path
         d="m 24.695115,64.597769 q 0.4318,0 0.7493,0.1905 0.3175,0.1905 0.4826,0.53975 0.17145,0.3429 0.17145,0.80645 v 0.33655 h -2.33045 q 0.0127,0.57785 0.2921,0.88265 0.28575,0.29845 0.79375,0.29845 0.32385,0 0.5715,-0.05715 0.254,-0.0635 0.5207,-0.1778 v 0.48895 q -0.26035,0.1143 -0.51435,0.1651 -0.254,0.05715 -0.60325,0.05715 -0.48895,0 -0.85725,-0.19685 -0.3683,-0.19685 -0.57785,-0.5842 -0.2032,-0.38735 -0.2032,-0.95885 0,-0.5588 0.18415,-0.95885 0.1905,-0.40005 0.52705,-0.61595 0.3429,-0.2159 0.79375,-0.2159 z m -0.0064,0.4572 q -0.40005,0 -0.635,0.26035 -0.2286,0.254 -0.27305,0.7112 h 1.73355 q -0.0064,-0.4318 -0.2032,-0.6985 -0.19685,-0.27305 -0.6223,-0.27305 z"
         style="text-align:start;text-anchor:start"
         id="path28410" />
      <path
         d="m 29.902112,64.604119 q 0.6223,0 0.92075,0.27305 0.29845,0.27305 0.29845,0.86995 v 2.31775 h -0.4064 l -0.10795,-0.4826 h -0.0254 q -0.22225,0.2794 -0.4699,0.41275 -0.24765,0.13335 -0.6731,0.13335 -0.46355,0 -0.76835,-0.2413 -0.3048,-0.24765 -0.3048,-0.76835 0,-0.508 0.40005,-0.78105 0.40005,-0.2794 1.2319,-0.3048 l 0.57785,-0.01905 v -0.2032 q 0,-0.42545 -0.18415,-0.59055 -0.18415,-0.1651 -0.5207,-0.1651 -0.2667,0 -0.508,0.08255 -0.2413,0.0762 -0.45085,0.1778 l -0.17145,-0.4191 q 0.22225,-0.12065 0.52705,-0.2032 0.3048,-0.0889 0.635,-0.0889 z m 0.66675,1.79705 -0.50165,0.01905 q -0.635,0.0254 -0.88265,0.2032 -0.2413,0.1778 -0.2413,0.50165 0,0.28575 0.17145,0.4191 0.1778,0.13335 0.45085,0.13335 0.42545,0 0.7112,-0.23495 0.2921,-0.2413 0.2921,-0.7366 z"
         style="text-align:start;text-anchor:start"
         id="path28412" />
      <path
         d="m 36.671218,64.661269 v 3.4036 h -0.4572 l -0.08255,-0.45085 h -0.0254 q -0.1651,0.2667 -0.4572,0.3937 -0.2921,0.12065 -0.6223,0.12065 -0.61595,0 -0.9271,-0.2921 -0.31115,-0.29845 -0.31115,-0.94615 v -2.22885 h 0.56515 v 2.19075 q 0,0.8128 0.75565,0.8128 0.56515,0 0.78105,-0.3175 0.22225,-0.3175 0.22225,-0.9144 v -1.77165 z"
         style="text-align:start;text-anchor:start"
         id="path28414" />
      <path
         d="m 41.484517,64.597769 q 0.57785,0 0.8636,0.29845 0.28575,0.29845 0.28575,0.9525 v 2.21615 h -0.55245 v -2.19075 q 0,-0.80645 -0.69215,-0.80645 -0.4953,0 -0.7112,0.28575 -0.20955,0.28575 -0.20955,0.83185 v 1.8796 h -0.55245 v -2.19075 q 0,-0.80645 -0.6985,-0.80645 -0.51435,0 -0.7112,0.3175 -0.19685,0.3175 -0.19685,0.9144 v 1.7653 h -0.5588 v -3.4036 h 0.45085 l 0.08255,0.46355 h 0.03175 q 0.15875,-0.2667 0.42545,-0.3937 0.27305,-0.13335 0.57785,-0.13335 0.8001,0 1.0414,0.5715 h 0.03175 q 0.17145,-0.2921 0.46355,-0.4318 0.2921,-0.1397 0.62865,-0.1397 z"
         style="text-align:start;text-anchor:start"
         id="path28416" />
      <path
         d="m 44.977015,64.604119 q 0.6223,0 0.92075,0.27305 0.29845,0.27305 0.29845,0.86995 v 2.31775 h -0.4064 l -0.10795,-0.4826 h -0.0254 q -0.22225,0.2794 -0.4699,0.41275 -0.24765,0.13335 -0.6731,0.13335 -0.46355,0 -0.76835,-0.2413 -0.3048,-0.24765 -0.3048,-0.76835 0,-0.508 0.40005,-0.78105 0.40005,-0.2794 1.2319,-0.3048 l 0.57785,-0.01905 v -0.2032 q 0,-0.42545 -0.18415,-0.59055 -0.18415,-0.1651 -0.5207,-0.1651 -0.2667,0 -0.508,0.08255 -0.2413,0.0762 -0.45085,0.1778 l -0.17145,-0.4191 q 0.22225,-0.12065 0.52705,-0.2032 0.3048,-0.0889 0.635,-0.0889 z m 0.66675,1.79705 -0.50165,0.01905 q -0.635,0.0254 -0.88265,0.2032 -0.2413,0.1778 -0.2413,0.50165 0,0.28575 0.17145,0.4191 0.1778,0.13335 0.45085,0.13335 0.42545,0 0.7112,-0.23495 0.2921,-0.2413 0.2921,-0.7366 z"
         style="text-align:start;text-anchor:start"
         id="path28418" />
      <path
         d="m 50.539621,64.597769 q 0.6096,0 0.92075,0.29845 0.31115,0.29845 0.31115,0.9525 v 2.21615 h -0.55245 v -2.17805 q 0,-0.81915 -0.762,-0.81915 -0.56515,0 -0.78105,0.3175 -0.2159,0.3175 -0.2159,0.9144 v 1.7653 h -0.5588 v -3.4036 h 0.45085 l 0.08255,0.46355 h 0.03175 q 0.1651,-0.2667 0.4572,-0.3937 0.2921,-0.13335 0.61595,-0.13335 z"
         style="text-align:start;text-anchor:start"
         id="path28420" />
      <path
         d="m 55.784722,66.356719 q 0,0.84455 -0.4318,1.3081 -0.42545,0.46355 -1.1557,0.46355 -0.45085,0 -0.80645,-0.2032 -0.34925,-0.20955 -0.55245,-0.60325 -0.2032,-0.40005 -0.2032,-0.9652 0,-0.84455 0.4191,-1.30175 0.42545,-0.4572 1.16205,-0.4572 0.4572,0 0.8128,0.20955 0.3556,0.2032 0.55245,0.5969 0.2032,0.38735 0.2032,0.9525 z m -2.57175,0 q 0,0.60325 0.23495,0.95885 0.2413,0.34925 0.762,0.34925 0.51435,0 0.75565,-0.34925 0.2413,-0.3556 0.2413,-0.95885 0,-0.60325 -0.2413,-0.94615 -0.2413,-0.3429 -0.762,-0.3429 -0.5207,0 -0.75565,0.3429 -0.23495,0.3429 -0.23495,0.94615 z"
         style="text-align:start;text-anchor:start"
         id="path28422" />
      <path
         d="m 57.289667,68.064869 -1.28905,-3.4036 h 0.5969 l 0.7239,2.0066 q 0.0508,0.1397 0.10795,0.31115 0.05715,0.17145 0.1016,0.3302 0.04445,0.15875 0.0635,0.26035 h 0.0254 q 0.01905,-0.1016 0.06985,-0.26035 0.0508,-0.1651 0.10795,-0.3302 0.05715,-0.17145 0.10795,-0.31115 l 0.7239,-2.0066 h 0.5969 l -1.2954,3.4036 z"
         style="text-align:start;text-anchor:start"
         id="path28424" />
      <path
         d="m 61.055213,64.604119 q 0.6223,0 0.92075,0.27305 0.29845,0.27305 0.29845,0.86995 v 2.31775 h -0.4064 l -0.10795,-0.4826 h -0.0254 q -0.22225,0.2794 -0.4699,0.41275 -0.24765,0.13335 -0.6731,0.13335 -0.46355,0 -0.76835,-0.2413 -0.3048,-0.24765 -0.3048,-0.76835 0,-0.508 0.40005,-0.78105 0.40005,-0.2794 1.2319,-0.3048 l 0.57785,-0.01905 v -0.2032 q 0,-0.42545 -0.18415,-0.59055 -0.18415,-0.1651 -0.5207,-0.1651 -0.2667,0 -0.508,0.08255 -0.2413,0.0762 -0.45085,0.1778 l -0.17145,-0.4191 q 0.22225,-0.12065 0.52705,-0.2032 0.3048,-0.0889 0.635,-0.0889 z m 0.66675,1.79705 -0.50165,0.01905 q -0.635,0.0254 -0.88265,0.2032 -0.2413,0.1778 -0.2413,0.50165 0,0.28575 0.17145,0.4191 0.1778,0.13335 0.45085,0.13335 0.42545,0 0.7112,-0.23495 0.2921,-0.2413 0.2921,-0.7366 z"
         style="text-align:start;text-anchor:start"
         id="path28426" />
      <path
         d="m 65.265269,63.384919 q 0.127,0 0.22225,0.0889 0.1016,0.08255 0.1016,0.2667 0,0.18415 -0.1016,0.27305 -0.09525,0.08255 -0.22225,0.08255 -0.1397,0 -0.23495,-0.08255 -0.09525,-0.0889 -0.09525,-0.27305 0,-0.18415 0.09525,-0.2667 0.09525,-0.0889 0.23495,-0.0889 z m 0.27305,1.27635 v 3.4036 h -0.5588 v -3.4036 z"
         style="text-align:start;text-anchor:start"
         id="path28428" />
      <path
         d="m 67.824313,68.128369 q -0.635,0 -1.016,-0.43815 -0.381,-0.4445 -0.381,-1.3208 0,-0.8763 0.381,-1.3208 0.38735,-0.45085 1.02235,-0.45085 0.3937,0 0.64135,0.14605 0.254,0.14605 0.41275,0.3556 h 0.0381 q -0.0127,-0.08255 -0.0254,-0.2413 -0.0127,-0.1651 -0.0127,-0.26035 v -1.3589 h 0.5588 v 4.826 h -0.45085 l -0.08255,-0.4572 h -0.0254 q -0.1524,0.2159 -0.4064,0.3683 -0.254,0.1524 -0.65405,0.1524 z m 0.0889,-0.46355 q 0.53975,0 0.75565,-0.2921 0.22225,-0.29845 0.22225,-0.89535 v -0.1016 q 0,-0.635 -0.20955,-0.97155 -0.20955,-0.3429 -0.7747,-0.3429 -0.45085,0 -0.67945,0.36195 -0.22225,0.3556 -0.22225,0.95885 0,0.6096 0.22225,0.94615 0.2286,0.33655 0.6858,0.33655 z"
         style="text-align:start;text-anchor:start"
         id="path28430" />
      <path
         d="m 71.83751,64.597769 q 0.4318,0 0.7493,0.1905 0.3175,0.1905 0.4826,0.53975 0.17145,0.3429 0.17145,0.80645 v 0.33655 h -2.33045 q 0.0127,0.57785 0.2921,0.88265 0.28575,0.29845 0.79375,0.29845 0.32385,0 0.5715,-0.05715 0.254,-0.0635 0.5207,-0.1778 v 0.48895 q -0.26035,0.1143 -0.51435,0.1651 -0.254,0.05715 -0.60325,0.05715 -0.48895,0 -0.85725,-0.19685 -0.3683,-0.19685 -0.57785,-0.5842 -0.2032,-0.38735 -0.2032,-0.95885 0,-0.5588 0.18415,-0.95885 0.1905,-0.40005 0.52705,-0.61595 0.3429,-0.2159 0.79375,-0.2159 z m -0.0063,0.4572 q -0.40005,0 -0.635,0.26035 -0.2286,0.254 -0.27305,0.7112 h 1.73355 q -0.0063,-0.4318 -0.2032,-0.6985 -0.19685,-0.27305 -0.6223,-0.27305 z"
         style="text-align:start;text-anchor:start"
         id="path28432" />
      <path
         d="m 74.390208,63.384919 q 0.127,0 0.22225,0.0889 0.1016,0.08255 0.1016,0.2667 0,0.18415 -0.1016,0.27305 -0.09525,0.08255 -0.22225,0.08255 -0.1397,0 -0.23495,-0.08255 -0.09525,-0.0889 -0.09525,-0.27305 0,-0.18415 0.09525,-0.2667 0.09525,-0.0889 0.23495,-0.0889 z m 0.27305,1.27635 v 3.4036 h -0.5588 v -3.4036 z"
         style="text-align:start;text-anchor:start"
         id="path28434" />
      <path
         d="m 77.031806,64.604119 q 0.6223,0 0.92075,0.27305 0.29845,0.27305 0.29845,0.86995 v 2.31775 h -0.4064 l -0.10795,-0.4826 h -0.0254 q -0.22225,0.2794 -0.4699,0.41275 -0.24765,0.13335 -0.6731,0.13335 -0.46355,0 -0.76835,-0.2413 -0.3048,-0.24765 -0.3048,-0.76835 0,-0.508 0.40005,-0.78105 0.40005,-0.2794 1.2319,-0.3048 l 0.57785,-0.01905 v -0.2032 q 0,-0.42545 -0.18415,-0.59055 -0.18415,-0.1651 -0.5207,-0.1651 -0.2667,0 -0.508,0.08255 -0.2413,0.0762 -0.45085,0.1778 l -0.17145,-0.4191 q 0.22225,-0.12065 0.52705,-0.2032 0.3048,-0.0889 0.635,-0.0889 z m 0.66675,1.79705 -0.50165,0.01905 q -0.635,0.0254 -0.88265,0.2032 -0.2413,0.1778 -0.2413,0.50165 0,0.28575 0.17145,0.4191 0.1778,0.13335 0.45085,0.13335 0.42545,0 0.7112,-0.23495 0.2921,-0.2413 0.2921,-0.7366 z"
         style="text-align:start;text-anchor:start"
         id="path28436" />
      <path
         d="m 5.0990168,71.678019 q 0,-0.18415 0.09525,-0.2667 0.09525,-0.0889 0.23495,-0.0889 0.127,0 0.22225,0.0889 0.1016,0.08255 0.1016,0.2667 0,0.18415 -0.1016,0.27305 -0.09525,0.08255 -0.22225,0.08255 -0.1397,0 -0.23495,-0.08255 -0.09525,-0.0889 -0.09525,-0.27305 z m -0.3556,5.84835 q -0.1650999,0 -0.2857499,-0.0254 -0.12065,-0.01905 -0.2032,-0.0508 v -0.45085 q 0.09525,0.03175 0.19685,0.04445 0.1016,0.01905 0.2222499,0.01905 0.2032,0 0.33655,-0.1143 0.13335,-0.10795 0.13335,-0.4191 v -3.93065 h 0.5588 v 3.9116 q 0,0.47625 -0.2286,0.74295 -0.2286,0.27305 -0.73025,0.27305 z"
         style="text-align:start;text-anchor:start"
         id="path28438" />
      <path
         d="m 8.0708131,72.541619 q 0.6223,0 0.92075,0.27305 0.29845,0.27305 0.29845,0.86995 v 2.31775 h -0.4064 l -0.10795,-0.4826 h -0.0254 q -0.22225,0.2794 -0.4699,0.41275 -0.24765,0.13335 -0.6731,0.13335 -0.46355,0 -0.76835,-0.2413 -0.3048,-0.24765 -0.3048,-0.76835 0,-0.508 0.40005,-0.78105 0.40005,-0.2794 1.2319,-0.3048 l 0.57785,-0.01905 v -0.2032 q 0,-0.42545 -0.18415,-0.59055 -0.18415,-0.1651 -0.5207,-0.1651 -0.2667,0 -0.508,0.08255 -0.2413,0.0762 -0.45085,0.1778 l -0.17145,-0.4191 q 0.22225,-0.12065 0.52705,-0.2032 0.3048,-0.0889 0.635,-0.0889 z m 0.66675,1.79705 -0.50165,0.01905 q -0.635,0.0254 -0.88265,0.2032 -0.2413,0.1778 -0.2413,0.50165 0,0.28575 0.17145,0.4191 0.1778,0.13335 0.45085,0.13335 0.42545,0 0.7112,-0.23495 0.2921,-0.2413 0.2921,-0.7366 z"
         style="text-align:start;text-anchor:start"
         id="path28440" />
      <path
         d="m 14.077918,72.535269 q 0.57785,0 0.8636,0.29845 0.28575,0.29845 0.28575,0.9525 v 2.21615 h -0.55245 v -2.19075 q 0,-0.80645 -0.69215,-0.80645 -0.4953,0 -0.7112,0.28575 -0.20955,0.28575 -0.20955,0.83185 v 1.8796 h -0.55245 v -2.19075 q 0,-0.80645 -0.6985,-0.80645 -0.51435,0 -0.7112,0.3175 -0.19685,0.3175 -0.19685,0.9144 v 1.7653 h -0.5588 v -3.4036 h 0.45085 l 0.08255,0.46355 h 0.03175 q 0.15875,-0.2667 0.42545,-0.3937 0.27305,-0.13335 0.57785,-0.13335 0.8001,0 1.0414,0.5715 h 0.03175 q 0.17145,-0.2921 0.46355,-0.4318 0.2921,-0.1397 0.62865,-0.1397 z"
         style="text-align:start;text-anchor:start"
         id="path28442" />
      <path
         d="m 17.570414,72.541619 q 0.6223,0 0.92075,0.27305 0.29845,0.27305 0.29845,0.86995 v 2.31775 h -0.4064 l -0.10795,-0.4826 h -0.0254 q -0.22225,0.2794 -0.4699,0.41275 -0.24765,0.13335 -0.6731,0.13335 -0.46355,0 -0.76835,-0.2413 -0.3048,-0.24765 -0.3048,-0.76835 0,-0.508 0.40005,-0.78105 0.40005,-0.2794 1.2319,-0.3048 l 0.57785,-0.01905 v -0.2032 q 0,-0.42545 -0.18415,-0.59055 -0.18415,-0.1651 -0.5207,-0.1651 -0.2667,0 -0.508,0.08255 -0.2413,0.0762 -0.45085,0.1778 l -0.17145,-0.4191 q 0.22225,-0.12065 0.52705,-0.2032 0.3048,-0.0889 0.635,-0.0889 z m 0.66675,1.79705 -0.50165,0.01905 q -0.635,0.0254 -0.88265,0.2032 -0.2413,0.1778 -0.2413,0.50165 0,0.28575 0.17145,0.4191 0.1778,0.13335 0.45085,0.13335 0.42545,0 0.7112,-0.23495 0.2921,-0.2413 0.2921,-0.7366 z"
         style="text-align:start;text-anchor:start"
         id="path28444" />
      <path
         d="m 20.12947,71.322419 q 0.127,0 0.22225,0.0889 0.1016,0.08255 0.1016,0.2667 0,0.18415 -0.1016,0.27305 -0.09525,0.08255 -0.22225,0.08255 -0.1397,0 -0.23495,-0.08255 -0.09525,-0.0889 -0.09525,-0.27305 0,-0.18415 0.09525,-0.2667 0.09525,-0.0889 0.23495,-0.0889 z m 0.27305,1.27635 v 3.4036 h -0.5588 v -3.4036 z"
         style="text-align:start;text-anchor:start"
         id="path28446" />
      <path
         d="m 23.698165,75.062569 q 0,0.4953 -0.3683,0.7493 -0.3683,0.254 -0.9906,0.254 -0.3556,0 -0.61595,-0.05715 -0.253999,-0.05715 -0.450849,-0.15875 v -0.508 q 0.2032,0.1016 0.488949,0.1905 0.2921,0.08255 0.59055,0.08255 0.42545,0 0.61595,-0.13335 0.1905,-0.1397 0.1905,-0.3683 0,-0.127 -0.06985,-0.2286 -0.06985,-0.1016 -0.254,-0.2032 -0.1778,-0.1016 -0.51435,-0.2286 -0.3302,-0.127 -0.56515,-0.254 -0.234949,-0.127 -0.361949,-0.3048 -0.127,-0.1778 -0.127,-0.4572 0,-0.4318 0.34925,-0.66675 0.355599,-0.23495 0.927099,-0.23495 0.31115,0 0.57785,0.0635 0.27305,0.0635 0.508,0.1651 l -0.1905,0.4445 q -0.2159,-0.0889 -0.45085,-0.1524 -0.23495,-0.0635 -0.4826,-0.0635 -0.3429,0 -0.52705,0.1143 -0.1778,0.10795 -0.1778,0.29845 0,0.14605 0.08255,0.2413 0.08255,0.09525 0.27305,0.1905 0.19685,0.09525 0.5207,0.2159 0.32385,0.12065 0.55245,0.24765 0.2286,0.127 0.34925,0.31115 0.12065,0.1778 0.12065,0.45085 z"
         style="text-align:start;text-anchor:start"
         id="path28448" />
      <path
         d="m 26.923967,76.002369 -1.28905,-3.4036 h 0.5969 l 0.7239,2.0066 q 0.0508,0.1397 0.10795,0.31115 0.05715,0.17145 0.1016,0.3302 0.04445,0.15875 0.0635,0.26035 h 0.0254 q 0.01905,-0.1016 0.06985,-0.26035 0.0508,-0.1651 0.10795,-0.3302 0.05715,-0.17145 0.10795,-0.31115 l 0.7239,-2.0066 h 0.5969 l -1.2954,3.4036 z"
         style="text-align:start;text-anchor:start"
         id="path28450" />
      <path
         d="m 32.359565,74.294219 q 0,0.84455 -0.4318,1.3081 -0.42545,0.46355 -1.1557,0.46355 -0.45085,0 -0.80645,-0.2032 -0.34925,-0.20955 -0.55245,-0.60325 -0.2032,-0.40005 -0.2032,-0.9652 0,-0.84455 0.4191,-1.30175 0.42545,-0.4572 1.16205,-0.4572 0.4572,0 0.8128,0.20955 0.3556,0.2032 0.55245,0.5969 0.2032,0.38735 0.2032,0.9525 z m -2.57175,0 q 0,0.60325 0.23495,0.95885 0.2413,0.34925 0.762,0.34925 0.51435,0 0.75565,-0.34925 0.2413,-0.3556 0.2413,-0.95885 0,-0.60325 -0.2413,-0.94615 -0.2413,-0.3429 -0.762,-0.3429 -0.5207,0 -0.75565,0.3429 -0.23495,0.3429 -0.23495,0.94615 z"
         style="text-align:start;text-anchor:start"
         id="path28452" />
      <path
         d="m 33.801012,76.002369 h -0.5588 v -4.826 h 0.5588 z"
         style="text-align:start;text-anchor:start"
         id="path28454" />
      <path
         d="m 36.017158,75.608669 q 0.127,0 0.26035,-0.01905 0.13335,-0.01905 0.2159,-0.0508 v 0.42545 q -0.0889,0.04445 -0.254,0.06985 -0.1651,0.03175 -0.3175,0.03175 -0.2667,0 -0.4953,-0.0889 -0.22225,-0.09525 -0.36195,-0.32385 -0.1397,-0.2286 -0.1397,-0.64135 v -1.9812 h -0.4826 v -0.2667 l 0.48895,-0.22225 0.22225,-0.7239 h 0.3302 v 0.78105 h 0.98425 v 0.4318 h -0.98425 v 1.9685 q 0,0.31115 0.14605,0.46355 0.1524,0.14605 0.38735,0.14605 z"
         style="text-align:start;text-anchor:start"
         id="path28456" />
      <path
         d="m 38.461909,72.541619 q 0.6223,0 0.92075,0.27305 0.29845,0.27305 0.29845,0.86995 v 2.31775 h -0.4064 l -0.10795,-0.4826 h -0.0254 q -0.22225,0.2794 -0.4699,0.41275 -0.24765,0.13335 -0.6731,0.13335 -0.46355,0 -0.76835,-0.2413 -0.3048,-0.24765 -0.3048,-0.76835 0,-0.508 0.40005,-0.78105 0.40005,-0.2794 1.2319,-0.3048 l 0.57785,-0.01905 v -0.2032 q 0,-0.42545 -0.18415,-0.59055 -0.18415,-0.1651 -0.5207,-0.1651 -0.2667,0 -0.508,0.08255 -0.2413,0.0762 -0.45085,0.1778 l -0.17145,-0.4191 q 0.22225,-0.12065 0.52705,-0.2032 0.3048,-0.0889 0.635,-0.0889 z m 0.66675,1.79705 -0.50165,0.01905 q -0.635,0.0254 -0.88265,0.2032 -0.2413,0.1778 -0.2413,0.50165 0,0.28575 0.17145,0.4191 0.1778,0.13335 0.45085,0.13335 0.42545,0 0.7112,-0.23495 0.2921,-0.2413 0.2921,-0.7366 z"
         style="text-align:start;text-anchor:start"
         id="path28458" />
      <path
         d="m 42.322714,72.535269 q 0.09525,0 0.2032,0.0127 0.10795,0.0064 0.19685,0.0254 l -0.06985,0.51435 q -0.08255,-0.01905 -0.18415,-0.03175 -0.1016,-0.0127 -0.18415,-0.0127 -0.26035,0 -0.48895,0.14605 -0.2286,0.1397 -0.3683,0.40005 -0.13335,0.254 -0.13335,0.5969 v 1.8161 h -0.5588 v -3.4036 h 0.4572 l 0.0635,0.6223 h 0.0254 q 0.15875,-0.2794 0.4191,-0.4826 0.2667,-0.2032 0.6223,-0.2032 z"
         style="text-align:start;text-anchor:start"
         id="path28460" />
      <path
         d="m 44.519812,72.541619 q 0.6223,0 0.92075,0.27305 0.29845,0.27305 0.29845,0.86995 v 2.31775 h -0.4064 l -0.10795,-0.4826 h -0.0254 q -0.22225,0.2794 -0.4699,0.41275 -0.24765,0.13335 -0.6731,0.13335 -0.46355,0 -0.76835,-0.2413 -0.3048,-0.24765 -0.3048,-0.76835 0,-0.508 0.40005,-0.78105 0.40005,-0.2794 1.2319,-0.3048 l 0.57785,-0.01905 v -0.2032 q 0,-0.42545 -0.18415,-0.59055 -0.18415,-0.1651 -0.5207,-0.1651 -0.2667,0 -0.508,0.08255 -0.2413,0.0762 -0.45085,0.1778 l -0.17145,-0.4191 q 0.22225,-0.12065 0.52705,-0.2032 0.3048,-0.0889 0.635,-0.0889 z m 0.66675,1.79705 -0.50165,0.01905 q -0.635,0.0254 -0.88265,0.2032 -0.2413,0.1778 -0.2413,0.50165 0,0.28575 0.17145,0.4191 0.1778,0.13335 0.45085,0.13335 0.42545,0 0.7112,-0.23495 0.2921,-0.2413 0.2921,-0.7366 z m 0.18415,-3.2004 v 0.0635 q -0.08255,0.1143 -0.2413,0.29845 -0.1524,0.1778 -0.33655,0.36195 -0.1778,0.1778 -0.3302,0.2921 h -0.3683 v -0.0762 q 0.0889,-0.1143 0.2032,-0.2794 0.1143,-0.17145 0.22225,-0.3429 0.10795,-0.1778 0.1778,-0.3175 z"
         style="text-align:start;text-anchor:start"
         id="path28462" />
      <path
         d="m 49.733168,72.541619 q 0.6223,0 0.92075,0.27305 0.29845,0.27305 0.29845,0.86995 v 2.31775 h -0.4064 l -0.10795,-0.4826 h -0.0254 q -0.22225,0.2794 -0.4699,0.41275 -0.24765,0.13335 -0.6731,0.13335 -0.46355,0 -0.76835,-0.2413 -0.3048,-0.24765 -0.3048,-0.76835 0,-0.508 0.40005,-0.78105 0.40005,-0.2794 1.2319,-0.3048 l 0.57785,-0.01905 v -0.2032 q 0,-0.42545 -0.18415,-0.59055 -0.18415,-0.1651 -0.5207,-0.1651 -0.2667,0 -0.508,0.08255 -0.2413,0.0762 -0.45085,0.1778 l -0.17145,-0.4191 q 0.22225,-0.12065 0.52705,-0.2032 0.3048,-0.0889 0.635,-0.0889 z m 0.66675,1.79705 -0.50165,0.01905 q -0.635,0.0254 -0.88265,0.2032 -0.2413,0.1778 -0.2413,0.50165 0,0.28575 0.17145,0.4191 0.1778,0.13335 0.45085,0.13335 0.42545,0 0.7112,-0.23495 0.2921,-0.2413 0.2921,-0.7366 z"
         style="text-align:start;text-anchor:start"
         id="path28464" />
      <path
         d="m 54.965573,74.294219 q 0,0.84455 -0.4318,1.3081 -0.42545,0.46355 -1.1557,0.46355 -0.45085,0 -0.80645,-0.2032 -0.34925,-0.20955 -0.55245,-0.60325 -0.2032,-0.40005 -0.2032,-0.9652 0,-0.84455 0.4191,-1.30175 0.42545,-0.4572 1.16205,-0.4572 0.4572,0 0.8128,0.20955 0.3556,0.2032 0.55245,0.5969 0.2032,0.38735 0.2032,0.9525 z m -2.57175,0 q 0,0.60325 0.23495,0.95885 0.2413,0.34925 0.762,0.34925 0.51435,0 0.75565,-0.34925 0.2413,-0.3556 0.2413,-0.95885 0,-0.60325 -0.2413,-0.94615 -0.2413,-0.3429 -0.762,-0.3429 -0.5207,0 -0.75565,0.3429 -0.23495,0.3429 -0.23495,0.94615 z"
         style="text-align:start;text-anchor:start"
         id="path28466" />
      <path
         d="m 59.715372,75.062569 q 0,0.4953 -0.3683,0.7493 -0.3683,0.254 -0.9906,0.254 -0.3556,0 -0.61595,-0.05715 -0.254,-0.05715 -0.45085,-0.15875 v -0.508 q 0.2032,0.1016 0.48895,0.1905 0.2921,0.08255 0.59055,0.08255 0.42545,0 0.61595,-0.13335 0.1905,-0.1397 0.1905,-0.3683 0,-0.127 -0.06985,-0.2286 -0.06985,-0.1016 -0.254,-0.2032 -0.1778,-0.1016 -0.51435,-0.2286 -0.3302,-0.127 -0.56515,-0.254 -0.23495,-0.127 -0.36195,-0.3048 -0.127,-0.1778 -0.127,-0.4572 0,-0.4318 0.34925,-0.66675 0.3556,-0.23495 0.9271,-0.23495 0.31115,0 0.57785,0.0635 0.27305,0.0635 0.508,0.1651 l -0.1905,0.4445 q -0.2159,-0.0889 -0.45085,-0.1524 -0.23495,-0.0635 -0.4826,-0.0635 -0.3429,0 -0.52705,0.1143 -0.1778,0.10795 -0.1778,0.29845 0,0.14605 0.08255,0.2413 0.08255,0.09525 0.27305,0.1905 0.19685,0.09525 0.5207,0.2159 0.32385,0.12065 0.55245,0.24765 0.2286,0.127 0.34925,0.31115 0.12065,0.1778 0.12065,0.45085 z"
         style="text-align:start;text-anchor:start"
         id="path28468" />
      <path
         d="m 61.855321,72.535269 q 0.4318,0 0.7493,0.1905 0.3175,0.1905 0.4826,0.53975 0.17145,0.3429 0.17145,0.80645 v 0.33655 h -2.33045 q 0.0127,0.57785 0.2921,0.88265 0.28575,0.29845 0.79375,0.29845 0.32385,0 0.5715,-0.05715 0.254,-0.0635 0.5207,-0.1778 v 0.48895 q -0.26035,0.1143 -0.51435,0.1651 -0.254,0.05715 -0.60325,0.05715 -0.48895,0 -0.85725,-0.19685 -0.3683,-0.19685 -0.57785,-0.5842 -0.2032,-0.38735 -0.2032,-0.95885 0,-0.5588 0.18415,-0.95885 0.1905,-0.40005 0.52705,-0.61595 0.3429,-0.2159 0.79375,-0.2159 z m -0.0064,0.4572 q -0.40005,0 -0.635,0.26035 -0.2286,0.254 -0.27305,0.7112 h 1.73355 q -0.0063,-0.4318 -0.2032,-0.6985 -0.19685,-0.27305 -0.6223,-0.27305 z"
         style="text-align:start;text-anchor:start"
         id="path28470" />
      <path
         d="m 66.967069,72.598769 v 3.4036 h -0.4572 l -0.08255,-0.45085 h -0.0254 q -0.1651,0.2667 -0.4572,0.3937 -0.2921,0.12065 -0.6223,0.12065 -0.61595,0 -0.9271,-0.2921 -0.31115,-0.29845 -0.31115,-0.94615 v -2.22885 h 0.56515 v 2.19075 q 0,0.8128 0.75565,0.8128 0.56515,0 0.78105,-0.3175 0.22225,-0.3175 0.22225,-0.9144 v -1.77165 z"
         style="text-align:start;text-anchor:start"
         id="path28472" />
      <path
         d="m 70.834217,75.608669 q 0.127,0 0.26035,-0.01905 0.13335,-0.01905 0.2159,-0.0508 v 0.42545 q -0.0889,0.04445 -0.254,0.06985 -0.1651,0.03175 -0.3175,0.03175 -0.2667,0 -0.4953,-0.0889 -0.22225,-0.09525 -0.36195,-0.32385 -0.1397,-0.2286 -0.1397,-0.64135 v -1.9812 h -0.4826 v -0.2667 l 0.48895,-0.22225 0.22225,-0.7239 h 0.3302 v 0.78105 h 0.98425 v 0.4318 h -0.98425 v 1.9685 q 0,0.31115 0.14605,0.46355 0.1524,0.14605 0.38735,0.14605 z"
         style="text-align:start;text-anchor:start"
         id="path28474" />
      <path
         d="m 73.278968,72.541619 q 0.6223,0 0.92075,0.27305 0.29845,0.27305 0.29845,0.86995 v 2.31775 h -0.4064 l -0.10795,-0.4826 h -0.0254 q -0.22225,0.2794 -0.4699,0.41275 -0.24765,0.13335 -0.6731,0.13335 -0.46355,0 -0.76835,-0.2413 -0.3048,-0.24765 -0.3048,-0.76835 0,-0.508 0.40005,-0.78105 0.40005,-0.2794 1.2319,-0.3048 l 0.57785,-0.01905 v -0.2032 q 0,-0.42545 -0.18415,-0.59055 -0.18415,-0.1651 -0.5207,-0.1651 -0.2667,0 -0.508,0.08255 -0.2413,0.0762 -0.45085,0.1778 l -0.17145,-0.4191 q 0.22225,-0.12065 0.52705,-0.2032 0.3048,-0.0889 0.635,-0.0889 z m 0.66675,1.79705 -0.50165,0.01905 q -0.635,0.0254 -0.88265,0.2032 -0.2413,0.1778 -0.2413,0.50165 0,0.28575 0.17145,0.4191 0.1778,0.13335 0.45085,0.13335 0.42545,0 0.7112,-0.23495 0.2921,-0.2413 0.2921,-0.7366 z"
         style="text-align:start;text-anchor:start"
         id="path28476" />
      <path
         d="m 79.286073,72.535269 q 0.57785,0 0.8636,0.29845 0.28575,0.29845 0.28575,0.9525 v 2.21615 h -0.55245 v -2.19075 q 0,-0.80645 -0.69215,-0.80645 -0.4953,0 -0.7112,0.28575 -0.20955,0.28575 -0.20955,0.83185 v 1.8796 h -0.55245 v -2.19075 q 0,-0.80645 -0.6985,-0.80645 -0.51435,0 -0.7112,0.3175 -0.19685,0.3175 -0.19685,0.9144 v 1.7653 h -0.5588 v -3.4036 h 0.45085 l 0.08255,0.46355 h 0.03175 q 0.15875,-0.2667 0.42545,-0.3937 0.27305,-0.13335 0.57785,-0.13335 0.8001,0 1.0414,0.5715 h 0.03175 q 0.17145,-0.2921 0.46355,-0.4318 0.2921,-0.1397 0.62865,-0.1397 z"
         style="text-align:start;text-anchor:start"
         id="path28478" />
      <path
         d="m 82.778571,72.541619 q 0.6223,0 0.92075,0.27305 0.29845,0.27305 0.29845,0.86995 v 2.31775 h -0.4064 l -0.10795,-0.4826 h -0.0254 q -0.22225,0.2794 -0.4699,0.41275 -0.24765,0.13335 -0.6731,0.13335 -0.46355,0 -0.76835,-0.2413 -0.3048,-0.24765 -0.3048,-0.76835 0,-0.508 0.40005,-0.78105 0.40005,-0.2794 1.2319,-0.3048 l 0.57785,-0.01905 v -0.2032 q 0,-0.42545 -0.18415,-0.59055 -0.18415,-0.1651 -0.5207,-0.1651 -0.2667,0 -0.508,0.08255 -0.2413,0.0762 -0.45085,0.1778 l -0.17145,-0.4191 q 0.22225,-0.12065 0.52705,-0.2032 0.3048,-0.0889 0.635,-0.0889 z m 0.66675,1.79705 -0.50165,0.01905 q -0.635,0.0254 -0.88265,0.2032 -0.2413,0.1778 -0.2413,0.50165 0,0.28575 0.17145,0.4191 0.1778,0.13335 0.45085,0.13335 0.42545,0 0.7112,-0.23495 0.2921,-0.2413 0.2921,-0.7366 z"
         style="text-align:start;text-anchor:start"
         id="path28480" />
      <path
         d="m 86.690176,72.535269 q 0.6096,0 0.92075,0.29845 0.31115,0.29845 0.31115,0.9525 v 2.21615 h -0.55245 v -2.17805 q 0,-0.81915 -0.762,-0.81915 -0.56515,0 -0.78105,0.3175 -0.2159,0.3175 -0.2159,0.9144 v 1.7653 h -0.5588 v -3.4036 h 0.45085 l 0.08255,0.46355 h 0.03175 q 0.1651,-0.2667 0.4572,-0.3937 0.2921,-0.13335 0.61595,-0.13335 z"
         style="text-align:start;text-anchor:start"
         id="path28482" />
      <path
         d="m 89.534977,71.176369 v 1.41605 q 0,0.254 -0.03175,0.47625 h 0.0381 q 0.1651,-0.26035 0.4445,-0.3937 0.28575,-0.13335 0.61595,-0.13335 0.61595,0 0.9271,0.29845 0.3175,0.2921 0.3175,0.94615 v 2.21615 h -0.55245 v -2.17805 q 0,-0.81915 -0.762,-0.81915 -0.5715,0 -0.7874,0.32385 -0.20955,0.3175 -0.20955,0.9144 v 1.75895 h -0.5588 v -4.826 z"
         style="text-align:start;text-anchor:start"
         id="path28484" />
      <path
         d="m 95.859578,74.294219 q 0,0.84455 -0.4318,1.3081 -0.42545,0.46355 -1.1557,0.46355 -0.45085,0 -0.80645,-0.2032 -0.34925,-0.20955 -0.55245,-0.60325 -0.2032,-0.40005 -0.2032,-0.9652 0,-0.84455 0.4191,-1.30175 0.42545,-0.4572 1.16205,-0.4572 0.4572,0 0.8128,0.20955 0.3556,0.2032 0.55245,0.5969 0.2032,0.38735 0.2032,0.9525 z m -2.57175,0 q 0,0.60325 0.23495,0.95885 0.2413,0.34925 0.762,0.34925 0.51435,0 0.75565,-0.34925 0.2413,-0.3556 0.2413,-0.95885 0,-0.60325 -0.2413,-0.94615 -0.2413,-0.3429 -0.762,-0.3429 -0.5207,0 -0.75565,0.3429 -0.23495,0.3429 -0.23495,0.94615 z"
         style="text-align:start;text-anchor:start"
         id="path28486" />
      <path
         d="m 101.35232,74.294219 q 0,0.84455 -0.4318,1.3081 -0.42545,0.46355 -1.155697,0.46355 -0.45085,0 -0.80645,-0.2032 -0.34925,-0.20955 -0.55245,-0.60325 -0.2032,-0.40005 -0.2032,-0.9652 0,-0.84455 0.4191,-1.30175 0.42545,-0.4572 1.16205,-0.4572 0.457197,0 0.812797,0.20955 0.3556,0.2032 0.55245,0.5969 0.2032,0.38735 0.2032,0.9525 z m -2.571747,0 q 0,0.60325 0.23495,0.95885 0.2413,0.34925 0.762,0.34925 0.514347,0 0.755647,-0.34925 0.2413,-0.3556 0.2413,-0.95885 0,-0.60325 -0.2413,-0.94615 -0.2413,-0.3429 -0.761997,-0.3429 -0.5207,0 -0.75565,0.3429 -0.23495,0.3429 -0.23495,0.94615 z"
         style="text-align:start;text-anchor:start"
         id="path28488" />
      <path
         d="m 103.82247,72.535269 q 0.0953,0 0.2032,0.0127 0.10795,0.0064 0.19685,0.0254 l -0.0699,0.51435 q -0.0825,-0.01905 -0.18415,-0.03175 -0.1016,-0.0127 -0.18415,-0.0127 -0.26035,0 -0.48895,0.14605 -0.2286,0.1397 -0.3683,0.40005 -0.13335,0.254 -0.13335,0.5969 v 1.8161 h -0.5588 v -3.4036 h 0.4572 l 0.0635,0.6223 h 0.0254 q 0.15875,-0.2794 0.4191,-0.4826 0.2667,-0.2032 0.6223,-0.2032 z"
         style="text-align:start;text-anchor:start"
         id="path28490" />
      <path
         d="m 105.14327,71.322419 q 0.127,0 0.22225,0.0889 0.1016,0.08255 0.1016,0.2667 0,0.18415 -0.1016,0.27305 -0.0953,0.08255 -0.22225,0.08255 -0.1397,0 -0.23495,-0.08255 -0.0953,-0.0889 -0.0953,-0.27305 0,-0.18415 0.0953,-0.2667 0.0952,-0.0889 0.23495,-0.0889 z m 0.27305,1.27635 v 3.4036 h -0.5588 v -3.4036 z"
         style="text-align:start;text-anchor:start"
         id="path28492" />
      <path
         d="m 107.70232,72.535269 q 0.33655,0 0.60325,0.127 0.27305,0.127 0.46355,0.38735 h 0.0318 l 0.0762,-0.45085 h 0.4445 v 3.46075 q 0,0.73025 -0.37465,1.09855 -0.3683,0.3683 -1.14935,0.3683 -0.7493,0 -1.22555,-0.2159 v -0.51435 q 0.50165,0.2667 1.2573,0.2667 0.43815,0 0.6858,-0.26035 0.254,-0.254 0.254,-0.6985 v -0.13335 q 0,-0.0762 0.006,-0.2159 0.006,-0.14605 0.0127,-0.2032 h -0.0254 q -0.3429,0.51435 -1.0541,0.51435 -0.6604,0 -1.03505,-0.46355 -0.3683,-0.46355 -0.3683,-1.2954 0,-0.8128 0.3683,-1.28905 0.37465,-0.4826 1.0287,-0.4826 z m 0.0762,0.4699 q -0.42545,0 -0.6604,0.3429 -0.23495,0.33655 -0.23495,0.9652 0,0.62865 0.2286,0.9652 0.2286,0.3302 0.67945,0.3302 0.51435,0 0.7493,-0.27305 0.23495,-0.2794 0.23495,-0.89535 v -0.13335 q 0,-0.69215 -0.2413,-0.99695 -0.2413,-0.3048 -0.75565,-0.3048 z"
         style="text-align:start;text-anchor:start"
         id="path28494" />
      <path
         d="m 110.68682,71.322419 q 0.127,0 0.22225,0.0889 0.1016,0.08255 0.1016,0.2667 0,0.18415 -0.1016,0.27305 -0.0952,0.08255 -0.22225,0.08255 -0.1397,0 -0.23495,-0.08255 -0.0952,-0.0889 -0.0952,-0.27305 0,-0.18415 0.0952,-0.2667 0.0953,-0.0889 0.23495,-0.0889 z m 0.27305,1.27635 v 3.4036 h -0.5588 v -3.4036 z"
         style="text-align:start;text-anchor:start"
         id="path28496" />
      <path
         d="m 113.67766,72.535269 q 0.6096,0 0.92075,0.29845 0.31115,0.29845 0.31115,0.9525 v 2.21615 h -0.55245 v -2.17805 q 0,-0.81915 -0.762,-0.81915 -0.56515,0 -0.78105,0.3175 -0.2159,0.3175 -0.2159,0.9144 v 1.7653 h -0.5588 v -3.4036 h 0.45085 l 0.0825,0.46355 h 0.0318 q 0.1651,-0.2667 0.4572,-0.3937 0.2921,-0.13335 0.61595,-0.13335 z"
         style="text-align:start;text-anchor:start"
         id="path28498" />
      <path
         d="m 117.25271,72.541619 q 0.6223,0 0.92075,0.27305 0.29845,0.27305 0.29845,0.86995 v 2.31775 h -0.4064 l -0.10795,-0.4826 h -0.0254 q -0.22225,0.2794 -0.4699,0.41275 -0.24765,0.13335 -0.6731,0.13335 -0.46355,0 -0.76835,-0.2413 -0.3048,-0.24765 -0.3048,-0.76835 0,-0.508 0.40005,-0.78105 0.40005,-0.2794 1.2319,-0.3048 l 0.57785,-0.01905 v -0.2032 q 0,-0.42545 -0.18415,-0.59055 -0.18415,-0.1651 -0.5207,-0.1651 -0.2667,0 -0.508,0.08255 -0.2413,0.0762 -0.45085,0.1778 l -0.17145,-0.4191 q 0.22225,-0.12065 0.52705,-0.2032 0.3048,-0.0889 0.635,-0.0889 z m 0.66675,1.79705 -0.50165,0.01905 q -0.635,0.0254 -0.88265,0.2032 -0.2413,0.1778 -0.2413,0.50165 0,0.28575 0.17145,0.4191 0.1778,0.13335 0.45085,0.13335 0.42545,0 0.7112,-0.23495 0.2921,-0.2413 0.2921,-0.7366 z"
         style="text-align:start;text-anchor:start"
         id="path28500" />
      <path
         d="m 120.08482,76.002369 h -0.5588 v -4.826 h 0.5588 z"
         style="text-align:start;text-anchor:start"
         id="path28502" />
      <path
         d="m 121.08177,75.659469 q 0,-0.23495 0.1143,-0.3302 0.1143,-0.09525 0.27305,-0.09525 0.15875,0 0.2794,0.09525 0.12065,0.09525 0.12065,0.3302 0,0.2286 -0.12065,0.3302 -0.12065,0.1016 -0.2794,0.1016 -0.15875,0 -0.27305,-0.1016 -0.1143,-0.1016 -0.1143,-0.3302 z"
         style="text-align:start;text-anchor:start"
         id="path28504" />
      <path
         d="m 123.34237,71.468469 -0.127,1.6383 h -0.34925 l -0.127,-1.6383 z"
         style="text-align:start;text-anchor:start"
         id="path28506" />
    </g>
    <text
       xml:space="preserve"
       transform="scale(0.26458333)"
       id="text14366"
       style="line-height:1.25;font-family:sans-serif;font-size:32px;-inkscape-font-specification:'sans-serif, Normal';text-align:center;white-space:pre;shape-inside:url(#rect14368)" />
    <g
       aria-label="'Com a idade, vem
a sabedoria.'"
       id="text22533"
       style="font-size:6.35px;line-height:1.25;-inkscape-font-specification:'sans-serif, Normal';text-align:center;text-anchor:middle;stroke-width:0.264583"
       inkscape:export-filename="C:\Projs\biscoito\img\card.png"
       inkscape:export-xdpi="96"
       inkscape:export-ydpi="96">
      <path
         d="m 4.9783668,29.144998 -0.127,1.6383 h -0.34925 l -0.127,-1.6383 z"
         style="text-align:start;text-anchor:start"
         id="path28327" />
      <path
         d="m 7.9501692,29.583148 q -0.73025,0 -1.14935,0.48895 -0.4191,0.48895 -0.4191,1.33985 0,0.84455 0.38735,1.33985 0.3937,0.48895 1.17475,0.48895 0.2921,0 0.5588,-0.0508 0.2667,-0.0508 0.52705,-0.127 v 0.4953 q -0.254,0.09525 -0.52705,0.1397 -0.2667,0.04445 -0.64135,0.04445 -0.69215,0 -1.1557,-0.28575 -0.46355,-0.28575 -0.6985,-0.8128 -0.2286,-0.52705 -0.2286,-1.23825 0,-0.6858 0.24765,-1.2065 0.254,-0.52705 0.74295,-0.81915 0.48895,-0.29845 1.18745,-0.29845 0.71755,0 1.25095,0.2667 l -0.2286,0.4826 q -0.20955,-0.09525 -0.4699,-0.17145 -0.254,-0.0762 -0.5588,-0.0762 z"
         style="text-align:start;text-anchor:start"
         id="path28329" />
      <path
         d="m 12.903169,31.970748 q 0,0.84455 -0.4318,1.3081 -0.42545,0.46355 -1.1557,0.46355 -0.45085,0 -0.80645,-0.2032 -0.34925,-0.20955 -0.55245,-0.60325 -0.2032,-0.40005 -0.2032,-0.9652 0,-0.84455 0.4191,-1.30175 0.42545,-0.4572 1.16205,-0.4572 0.4572,0 0.8128,0.20955 0.3556,0.2032 0.55245,0.5969 0.2032,0.38735 0.2032,0.9525 z m -2.57175,0 q 0,0.60325 0.23495,0.95885 0.2413,0.34925 0.762,0.34925 0.51435,0 0.75565,-0.34925 0.2413,-0.3556 0.2413,-0.95885 0,-0.60325 -0.2413,-0.94615 -0.2413,-0.3429 -0.762,-0.3429 -0.5207,0 -0.75565,0.3429 -0.23495,0.3429 -0.23495,0.94615 z"
         style="text-align:start;text-anchor:start"
         id="path28331" />
      <path
         d="m 17.519616,30.211798 q 0.57785,0 0.8636,0.29845 0.28575,0.29845 0.28575,0.9525 v 2.21615 h -0.55245 v -2.19075 q 0,-0.80645 -0.69215,-0.80645 -0.4953,0 -0.7112,0.28575 -0.20955,0.28575 -0.20955,0.83185 v 1.8796 h -0.55245 v -2.19075 q 0,-0.80645 -0.6985,-0.80645 -0.51435,0 -0.7112,0.3175 -0.19685,0.3175 -0.19685,0.9144 v 1.7653 h -0.5588 v -3.4036 h 0.45085 l 0.08255,0.46355 h 0.03175 q 0.15875,-0.2667 0.42545,-0.3937 0.27305,-0.13335 0.57785,-0.13335 0.8001,0 1.0414,0.5715 h 0.03175 q 0.17145,-0.2921 0.46355,-0.4318 0.2921,-0.1397 0.62865,-0.1397 z"
         style="text-align:start;text-anchor:start"
         id="path28333" />
      <path
         d="m 22.663113,30.218148 q 0.6223,0 0.92075,0.27305 0.29845,0.27305 0.29845,0.86995 v 2.31775 h -0.4064 l -0.10795,-0.4826 h -0.0254 q -0.22225,0.2794 -0.4699,0.41275 -0.24765,0.13335 -0.6731,0.13335 -0.46355,0 -0.76835,-0.2413 -0.3048,-0.24765 -0.3048,-0.76835 0,-0.508 0.40005,-0.78105 0.40005,-0.2794 1.2319,-0.3048 l 0.57785,-0.01905 v -0.2032 q 0,-0.42545 -0.18415,-0.59055 -0.18415,-0.1651 -0.5207,-0.1651 -0.2667,0 -0.508,0.08255 -0.2413,0.0762 -0.45085,0.1778 l -0.17145,-0.4191 q 0.22225,-0.12065 0.52705,-0.2032 0.3048,-0.0889 0.635,-0.0889 z m 0.66675,1.79705 -0.50165,0.01905 q -0.635,0.0254 -0.88265,0.2032 -0.2413,0.1778 -0.2413,0.50165 0,0.28575 0.17145,0.4191 0.1778,0.13335 0.45085,0.13335 0.42545,0 0.7112,-0.23495 0.2921,-0.2413 0.2921,-0.7366 z"
         style="text-align:start;text-anchor:start"
         id="path28335" />
      <path
         d="m 26.873171,28.998948 q 0.127,0 0.22225,0.0889 0.1016,0.08255 0.1016,0.2667 0,0.18415 -0.1016,0.27305 -0.09525,0.08255 -0.22225,0.08255 -0.1397,0 -0.23495,-0.08255 -0.09525,-0.0889 -0.09525,-0.27305 0,-0.18415 0.09525,-0.2667 0.09525,-0.0889 0.23495,-0.0889 z m 0.27305,1.27635 v 3.4036 h -0.5588 v -3.4036 z"
         style="text-align:start;text-anchor:start"
         id="path28337" />
      <path
         d="m 29.432217,33.742398 q -0.635,0 -1.016,-0.43815 -0.381,-0.4445 -0.381,-1.3208 0,-0.8763 0.381,-1.3208 0.38735,-0.45085 1.02235,-0.45085 0.3937,0 0.64135,0.14605 0.254,0.14605 0.41275,0.3556 h 0.0381 q -0.0127,-0.08255 -0.0254,-0.2413 -0.0127,-0.1651 -0.0127,-0.26035 v -1.3589 h 0.5588 v 4.826 h -0.45085 l -0.08255,-0.4572 h -0.0254 q -0.1524,0.2159 -0.4064,0.3683 -0.254,0.1524 -0.65405,0.1524 z m 0.0889,-0.46355 q 0.53975,0 0.75565,-0.2921 0.22225,-0.29845 0.22225,-0.89535 v -0.1016 q 0,-0.635 -0.20955,-0.97155 -0.20955,-0.3429 -0.7747,-0.3429 -0.45085,0 -0.67945,0.36195 -0.22225,0.3556 -0.22225,0.95885 0,0.6096 0.22225,0.94615 0.2286,0.33655 0.6858,0.33655 z"
         style="text-align:start;text-anchor:start"
         id="path28339" />
      <path
         d="m 33.420016,30.218148 q 0.6223,0 0.92075,0.27305 0.29845,0.27305 0.29845,0.86995 v 2.31775 h -0.4064 l -0.10795,-0.4826 h -0.0254 q -0.22225,0.2794 -0.4699,0.41275 -0.24765,0.13335 -0.6731,0.13335 -0.46355,0 -0.76835,-0.2413 -0.3048,-0.24765 -0.3048,-0.76835 0,-0.508 0.40005,-0.78105 0.40005,-0.2794 1.2319,-0.3048 l 0.57785,-0.01905 v -0.2032 q 0,-0.42545 -0.18415,-0.59055 -0.18415,-0.1651 -0.5207,-0.1651 -0.2667,0 -0.508,0.08255 -0.2413,0.0762 -0.45085,0.1778 l -0.17145,-0.4191 q 0.22225,-0.12065 0.52705,-0.2032 0.3048,-0.0889 0.635,-0.0889 z m 0.66675,1.79705 -0.50165,0.01905 q -0.635,0.0254 -0.88265,0.2032 -0.2413,0.1778 -0.2413,0.50165 0,0.28575 0.17145,0.4191 0.1778,0.13335 0.45085,0.13335 0.42545,0 0.7112,-0.23495 0.2921,-0.2413 0.2921,-0.7366 z"
         style="text-align:start;text-anchor:start"
         id="path28341" />
      <path
         d="m 36.899821,33.742398 q -0.635,0 -1.016,-0.43815 -0.381,-0.4445 -0.381,-1.3208 0,-0.8763 0.381,-1.3208 0.38735,-0.45085 1.02235,-0.45085 0.3937,0 0.64135,0.14605 0.254,0.14605 0.41275,0.3556 h 0.0381 q -0.0127,-0.08255 -0.0254,-0.2413 -0.0127,-0.1651 -0.0127,-0.26035 v -1.3589 h 0.5588 v 4.826 h -0.45085 l -0.08255,-0.4572 h -0.0254 q -0.1524,0.2159 -0.4064,0.3683 -0.254,0.1524 -0.65405,0.1524 z m 0.0889,-0.46355 q 0.53975,0 0.75565,-0.2921 0.22225,-0.29845 0.22225,-0.89535 v -0.1016 q 0,-0.635 -0.20955,-0.97155 -0.20955,-0.3429 -0.7747,-0.3429 -0.45085,0 -0.67945,0.36195 -0.22225,0.3556 -0.22225,0.95885 0,0.6096 0.22225,0.94615 0.2286,0.33655 0.6858,0.33655 z"
         style="text-align:start;text-anchor:start"
         id="path28343" />
      <path
         d="m 40.913018,30.211798 q 0.4318,0 0.7493,0.1905 0.3175,0.1905 0.4826,0.53975 0.17145,0.3429 0.17145,0.80645 v 0.33655 h -2.33045 q 0.0127,0.57785 0.2921,0.88265 0.28575,0.29845 0.79375,0.29845 0.32385,0 0.5715,-0.05715 0.254,-0.0635 0.5207,-0.1778 v 0.48895 q -0.26035,0.1143 -0.51435,0.1651 -0.254,0.05715 -0.60325,0.05715 -0.48895,0 -0.85725,-0.19685 -0.3683,-0.19685 -0.57785,-0.5842 -0.2032,-0.38735 -0.2032,-0.95885 0,-0.5588 0.18415,-0.95885 0.1905,-0.40005 0.52705,-0.61595 0.3429,-0.2159 0.79375,-0.2159 z m -0.0063,0.4572 q -0.40005,0 -0.635,0.26035 -0.2286,0.254 -0.27305,0.7112 h 1.73355 q -0.0064,-0.4318 -0.2032,-0.6985 -0.19685,-0.27305 -0.6223,-0.27305 z"
         style="text-align:start;text-anchor:start"
         id="path28345" />
      <path
         d="m 43.814962,32.942298 0.04445,0.06985 q -0.0889,0.33655 -0.2413,0.7366 -0.1524,0.4064 -0.3048,0.7493 h -0.41275 q 0.0889,-0.36195 0.1778,-0.79375 0.09525,-0.4318 0.1397,-0.762 z"
         style="text-align:start;text-anchor:start"
         id="path28347" />
      <path
         d="m 47.282064,33.678898 -1.28905,-3.4036 h 0.5969 l 0.7239,2.0066 q 0.0508,0.1397 0.10795,0.31115 0.05715,0.17145 0.1016,0.3302 0.04445,0.15875 0.0635,0.26035 h 0.0254 q 0.01905,-0.1016 0.06985,-0.26035 0.0508,-0.1651 0.10795,-0.3302 0.05715,-0.17145 0.10795,-0.31115 l 0.7239,-2.0066 h 0.5969 l -1.2954,3.4036 z"
         style="text-align:start;text-anchor:start"
         id="path28349" />
      <path
         d="m 51.07301,30.211798 q 0.4318,0 0.7493,0.1905 0.3175,0.1905 0.4826,0.53975 0.17145,0.3429 0.17145,0.80645 v 0.33655 h -2.33045 q 0.0127,0.57785 0.2921,0.88265 0.28575,0.29845 0.79375,0.29845 0.32385,0 0.5715,-0.05715 0.254,-0.0635 0.5207,-0.1778 v 0.48895 q -0.26035,0.1143 -0.51435,0.1651 -0.254,0.05715 -0.60325,0.05715 -0.48895,0 -0.85725,-0.19685 -0.3683,-0.19685 -0.57785,-0.5842 -0.2032,-0.38735 -0.2032,-0.95885 0,-0.5588 0.18415,-0.95885 0.1905,-0.40005 0.52705,-0.61595 0.3429,-0.2159 0.79375,-0.2159 z m -0.0063,0.4572 q -0.40005,0 -0.635,0.26035 -0.2286,0.254 -0.27305,0.7112 h 1.73355 q -0.0063,-0.4318 -0.2032,-0.6985 -0.19685,-0.27305 -0.6223,-0.27305 z"
         style="text-align:start;text-anchor:start"
         id="path28351" />
      <path
         d="m 57.073754,30.211798 q 0.57785,0 0.8636,0.29845 0.28575,0.29845 0.28575,0.9525 v 2.21615 h -0.55245 v -2.19075 q 0,-0.80645 -0.69215,-0.80645 -0.4953,0 -0.7112,0.28575 -0.20955,0.28575 -0.20955,0.83185 v 1.8796 h -0.55245 v -2.19075 q 0,-0.80645 -0.6985,-0.80645 -0.51435,0 -0.7112,0.3175 -0.19685,0.3175 -0.19685,0.9144 v 1.7653 h -0.5588 v -3.4036 h 0.45085 l 0.08255,0.46355 h 0.03175 q 0.15875,-0.2667 0.42545,-0.3937 0.27305,-0.13335 0.57785,-0.13335 0.8001,0 1.0414,0.5715 h 0.03175 q 0.17145,-0.2921 0.46355,-0.4318 0.2921,-0.1397 0.62865,-0.1397 z"
         style="text-align:start;text-anchor:start"
         id="path28353" />
      <path
         d="m 5.7911668,38.155648 q 0.6223,0 0.92075,0.27305 0.29845,0.27305 0.29845,0.86995 v 2.31775 h -0.4064 l -0.10795,-0.4826 h -0.0254 q -0.22225,0.2794 -0.4699,0.41275 -0.24765,0.13335 -0.6731,0.13335 -0.46355,0 -0.76835,-0.2413 -0.3048,-0.24765 -0.3048,-0.76835 0,-0.508 0.40005,-0.78105 0.40005,-0.2794 1.2319,-0.3048 l 0.57785,-0.01905 v -0.2032 q 0,-0.42545 -0.18415,-0.59055 -0.18415,-0.1651 -0.5207,-0.1651 -0.2667,0 -0.508,0.08255 -0.2413,0.0762 -0.45085,0.1778 l -0.17145,-0.4191 q 0.22225,-0.12065 0.52705,-0.2032 0.3048,-0.0889 0.635,-0.0889 z m 0.66675,1.79705 -0.50165,0.01905 q -0.635,0.0254 -0.88265,0.2032 -0.2413,0.1778 -0.2413,0.50165 0,0.28575 0.17145,0.4191 0.1778,0.13335 0.45085,0.13335 0.42545,0 0.7112,-0.23495 0.2921,-0.2413 0.2921,-0.7366 z"
         style="text-align:start;text-anchor:start"
         id="path28355" />
      <path
         d="m 11.931624,40.676598 q 0,0.4953 -0.3683,0.7493 -0.3683,0.254 -0.9906,0.254 -0.3556,0 -0.6159502,-0.05715 -0.254,-0.05715 -0.45085,-0.15875 v -0.508 q 0.2032,0.1016 0.48895,0.1905 0.2921002,0.08255 0.5905502,0.08255 0.42545,0 0.61595,-0.13335 0.1905,-0.1397 0.1905,-0.3683 0,-0.127 -0.06985,-0.2286 -0.06985,-0.1016 -0.254,-0.2032 -0.1778,-0.1016 -0.51435,-0.2286 -0.3302,-0.127 -0.5651502,-0.254 -0.23495,-0.127 -0.36195,-0.3048 -0.127,-0.1778 -0.127,-0.4572 0,-0.4318 0.34925,-0.66675 0.3556002,-0.23495 0.9271002,-0.23495 0.31115,0 0.57785,0.0635 0.27305,0.0635 0.508,0.1651 l -0.1905,0.4445 q -0.2159,-0.0889 -0.45085,-0.1524 -0.23495,-0.0635 -0.4826,-0.0635 -0.3429,0 -0.52705,0.1143 -0.1778,0.10795 -0.1778,0.29845 0,0.14605 0.08255,0.2413 0.08255,0.09525 0.27305,0.1905 0.19685,0.09525 0.5207,0.2159 0.32385,0.12065 0.55245,0.24765 0.2286,0.127 0.34925,0.31115 0.12065,0.1778 0.12065,0.45085 z"
         style="text-align:start;text-anchor:start"
         id="path28357" />
      <path
         d="m 14.046174,38.155648 q 0.6223,0 0.92075,0.27305 0.29845,0.27305 0.29845,0.86995 v 2.31775 h -0.4064 l -0.10795,-0.4826 h -0.0254 q -0.22225,0.2794 -0.4699,0.41275 -0.24765,0.13335 -0.6731,0.13335 -0.46355,0 -0.76835,-0.2413 -0.3048,-0.24765 -0.3048,-0.76835 0,-0.508 0.40005,-0.78105 0.40005,-0.2794 1.2319,-0.3048 l 0.57785,-0.01905 v -0.2032 q 0,-0.42545 -0.18415,-0.59055 -0.18415,-0.1651 -0.5207,-0.1651 -0.2667,0 -0.508,0.08255 -0.2413,0.0762 -0.45085,0.1778 l -0.17145,-0.4191 q 0.22225,-0.12065 0.52705,-0.2032 0.3048,-0.0889 0.635,-0.0889 z m 0.66675,1.79705 -0.50165,0.01905 q -0.635,0.0254 -0.88265,0.2032 -0.2413,0.1778 -0.2413,0.50165 0,0.28575 0.17145,0.4191 0.1778,0.13335 0.45085,0.13335 0.42545,0 0.7112,-0.23495 0.2921,-0.2413 0.2921,-0.7366 z"
         style="text-align:start;text-anchor:start"
         id="path28359" />
      <path
         d="m 16.87828,36.790398 v 1.17475 q 0,0.2159 -0.0127,0.4064 -0.0064,0.18415 -0.01905,0.2921 h 0.03175 q 0.14605,-0.2159 0.40005,-0.36195 0.254,-0.14605 0.65405,-0.14605 0.635,0 1.016,0.4445 0.38735,0.43815 0.38735,1.31445 0,0.8763 -0.38735,1.3208 -0.38735,0.4445 -1.016,0.4445 -0.40005,0 -0.65405,-0.14605 -0.254,-0.14605 -0.40005,-0.34925 h -0.04445 l -0.1143,0.4318 h -0.40005 v -4.826 z m 0.95885,1.8288 q -0.5461,0 -0.75565,0.31115 -0.2032,0.31115 -0.2032,0.9652 v 0.0254 q 0,0.62865 0.2032,0.9652 0.20955,0.3302 0.76835,0.3302 0.4572,0 0.67945,-0.33655 0.2286,-0.33655 0.2286,-0.97155 0,-1.28905 -0.92075,-1.28905 z"
         style="text-align:start;text-anchor:start"
         id="path28361" />
      <path
         d="m 21.539177,38.149298 q 0.4318,0 0.7493,0.1905 0.3175,0.1905 0.4826,0.53975 0.17145,0.3429 0.17145,0.80645 v 0.33655 h -2.33045 q 0.0127,0.57785 0.2921,0.88265 0.28575,0.29845 0.79375,0.29845 0.32385,0 0.5715,-0.05715 0.254,-0.0635 0.5207,-0.1778 v 0.48895 q -0.26035,0.1143 -0.51435,0.1651 -0.254,0.05715 -0.60325,0.05715 -0.48895,0 -0.85725,-0.19685 -0.3683,-0.19685 -0.57785,-0.5842 -0.2032,-0.38735 -0.2032,-0.95885 0,-0.5588 0.18415,-0.95885 0.1905,-0.40005 0.52705,-0.61595 0.3429,-0.2159 0.79375,-0.2159 z m -0.0063,0.4572 q -0.40005,0 -0.635,0.26035 -0.2286,0.254 -0.27305,0.7112 h 1.73355 q -0.0063,-0.4318 -0.2032,-0.6985 -0.19685,-0.27305 -0.6223,-0.27305 z"
         style="text-align:start;text-anchor:start"
         id="path28363" />
      <path
         d="m 25.012621,41.679898 q -0.635,0 -1.016,-0.43815 -0.381,-0.4445 -0.381,-1.3208 0,-0.8763 0.381,-1.3208 0.38735,-0.45085 1.02235,-0.45085 0.3937,0 0.64135,0.14605 0.254,0.14605 0.41275,0.3556 h 0.0381 q -0.0127,-0.08255 -0.0254,-0.2413 -0.0127,-0.1651 -0.0127,-0.26035 v -1.3589 h 0.5588 v 4.826 h -0.45085 l -0.08255,-0.4572 h -0.0254 q -0.1524,0.2159 -0.4064,0.3683 -0.254,0.1524 -0.65405,0.1524 z m 0.0889,-0.46355 q 0.53975,0 0.75565,-0.2921 0.22225,-0.29845 0.22225,-0.89535 v -0.1016 q 0,-0.635 -0.20955,-0.97155 -0.20955,-0.3429 -0.7747,-0.3429 -0.45085,0 -0.67945,0.36195 -0.22225,0.3556 -0.22225,0.95885 0,0.6096 0.22225,0.94615 0.2286,0.33655 0.6858,0.33655 z"
         style="text-align:start;text-anchor:start"
         id="path28365" />
      <path
         d="m 30.67047,39.908248 q 0,0.84455 -0.4318,1.3081 -0.42545,0.46355 -1.1557,0.46355 -0.45085,0 -0.80645,-0.2032 -0.34925,-0.20955 -0.55245,-0.60325 -0.2032,-0.40005 -0.2032,-0.9652 0,-0.84455 0.4191,-1.30175 0.42545,-0.4572 1.16205,-0.4572 0.4572,0 0.8128,0.20955 0.3556,0.2032 0.55245,0.5969 0.2032,0.38735 0.2032,0.9525 z m -2.57175,0 q 0,0.60325 0.23495,0.95885 0.2413,0.34925 0.762,0.34925 0.51435,0 0.75565,-0.34925 0.2413,-0.3556 0.2413,-0.95885 0,-0.60325 -0.2413,-0.94615 -0.2413,-0.3429 -0.762,-0.3429 -0.5207,0 -0.75565,0.3429 -0.23495,0.3429 -0.23495,0.94615 z"
         style="text-align:start;text-anchor:start"
         id="path28367" />
      <path
         d="m 33.140617,38.149298 q 0.09525,0 0.2032,0.0127 0.10795,0.0064 0.19685,0.0254 l -0.06985,0.51435 q -0.08255,-0.01905 -0.18415,-0.03175 -0.1016,-0.0127 -0.18415,-0.0127 -0.26035,0 -0.48895,0.14605 -0.2286,0.1397 -0.3683,0.40005 -0.13335,0.254 -0.13335,0.5969 v 1.8161 h -0.5588 v -3.4036 h 0.4572 l 0.0635,0.6223 h 0.0254 q 0.15875,-0.2794 0.4191,-0.4826 0.2667,-0.2032 0.6223,-0.2032 z"
         style="text-align:start;text-anchor:start"
         id="path28369" />
      <path
         d="m 34.461418,36.936448 q 0.127,0 0.22225,0.0889 0.1016,0.08255 0.1016,0.2667 0,0.18415 -0.1016,0.27305 -0.09525,0.08255 -0.22225,0.08255 -0.1397,0 -0.23495,-0.08255 -0.09525,-0.0889 -0.09525,-0.27305 0,-0.18415 0.09525,-0.2667 0.09525,-0.0889 0.23495,-0.0889 z m 0.27305,1.27635 v 3.4036 h -0.5588 v -3.4036 z"
         style="text-align:start;text-anchor:start"
         id="path28371" />
      <path
         d="m 37.103014,38.155648 q 0.6223,0 0.92075,0.27305 0.29845,0.27305 0.29845,0.86995 v 2.31775 h -0.4064 l -0.10795,-0.4826 h -0.0254 q -0.22225,0.2794 -0.4699,0.41275 -0.24765,0.13335 -0.6731,0.13335 -0.46355,0 -0.76835,-0.2413 -0.304799,-0.24765 -0.304799,-0.76835 0,-0.508 0.400049,-0.78105 0.40005,-0.2794 1.2319,-0.3048 l 0.57785,-0.01905 v -0.2032 q 0,-0.42545 -0.18415,-0.59055 -0.18415,-0.1651 -0.5207,-0.1651 -0.2667,0 -0.508,0.08255 -0.2413,0.0762 -0.45085,0.1778 l -0.17145,-0.4191 q 0.22225,-0.12065 0.52705,-0.2032 0.3048,-0.0889 0.635,-0.0889 z m 0.66675,1.79705 -0.50165,0.01905 q -0.635,0.0254 -0.88265,0.2032 -0.2413,0.1778 -0.2413,0.50165 0,0.28575 0.17145,0.4191 0.1778,0.13335 0.45085,0.13335 0.42545,0 0.7112,-0.23495 0.2921,-0.2413 0.2921,-0.7366 z"
         style="text-align:start;text-anchor:start"
         id="path28373" />
      <path
         d="m 39.29377,41.273498 q 0,-0.23495 0.1143,-0.3302 0.1143,-0.09525 0.27305,-0.09525 0.15875,0 0.2794,0.09525 0.12065,0.09525 0.12065,0.3302 0,0.2286 -0.12065,0.3302 -0.12065,0.1016 -0.2794,0.1016 -0.15875,0 -0.27305,-0.1016 -0.1143,-0.1016 -0.1143,-0.3302 z"
         style="text-align:start;text-anchor:start"
         id="path28375" />
      <path
         d="m 41.554367,37.082498 -0.127,1.6383 h -0.34925 l -0.127,-1.6383 z"
         style="text-align:start;text-anchor:start"
         id="path28377" />
    </g>
  </g>
  <g
     inkscape:groupmode="layer"
     id="layer4"
     inkscape:label="face"
     style="display:inline;opacity:1">
    <g
       id="g2946"
       transform="translate(46.549306,-1.5869081)"
       inkscape:export-filename="C:\Projs\biscoito\img\card.png"
       inkscape:export-xdpi="96"
       inkscape:export-ydpi="96">
      <g
         id="g10827"
         transform="matrix(1.1485633,0,0,1.1495055,-151.05056,-197.85448)"
         style="display:inline;opacity:0.559426;stroke-width:0.870286">
        <path
           style="fill:#ffffff;stroke:#000000;stroke-width:0.230267px;stroke-linecap:butt;stroke-linejoin:miter;stroke-opacity:1"
           d="m 217.2307,181.4365 9.52145,3.17382 c 0,0 -2.83081,17.28078 -21.15878,20.6298 -18.32796,3.34903 -37.55407,-15.87085 -42.84376,-3.17559 l -13.22699,14.28217 -10.05042,-6.34585 c 0,0 13.75577,-19.92334 22.74825,-19.39436 8.99248,0.52896 41.78601,15.69157 55.01025,-9.16999 z"
           id="path9547"
           sodipodi:nodetypes="ccscccsc" />
        <path
           sodipodi:type="star"
           style="opacity:0.651639;fill:#0000ff;fill-opacity:1;fill-rule:evenodd;stroke:none;stroke-width:3.41244;stroke-miterlimit:4;stroke-dasharray:none;stop-color:#000000"
           id="path10427"
           inkscape:flatsided="false"
           sodipodi:sides="5"
           sodipodi:cx="563.12335"
           sodipodi:cy="777.70996"
           sodipodi:r1="15.225868"
           sodipodi:r2="7.6129341"
           sodipodi:arg1="1.1659045"
           sodipodi:arg2="1.7942231"
           inkscape:rounded="-3.46945e-18"
           inkscape:randomized="0"
           d="m 569.12112,791.70474 -7.68458,-6.57107 -9.7696,2.60513 3.87479,-9.33905 -5.4966,-8.48641 10.07934,0.79923 6.37251,-7.85002 2.35458,9.83299 9.43503,3.63483 -8.62413,5.2779 z"
           transform="matrix(0.26458333,0,0,0.26458333,0,2.1166667)"
           inkscape:transform-center-x="-0.27582832"
           inkscape:transform-center-y="-0.11279943" />
        <path
           sodipodi:type="star"
           style="opacity:0.651639;fill:#0000ff;fill-opacity:1;fill-rule:evenodd;stroke:none;stroke-width:3.41244;stroke-miterlimit:4;stroke-dasharray:none;stop-color:#000000"
           id="path10429"
           inkscape:flatsided="false"
           sodipodi:sides="5"
           sodipodi:cx="585.11511"
           sodipodi:cy="741.72339"
           sodipodi:r1="7.2084141"
           sodipodi:r2="3.604207"
           sodipodi:arg1="2.1587989"
           sodipodi:arg2="2.7871175"
           inkscape:rounded="-3.46945e-18"
           inkscape:randomized="0"
           d="m 581.1166,747.72115 0.61838,-4.74675 -3.55969,-3.20041 4.70552,-0.87871 1.94377,-4.37445 2.28979,4.20368 4.761,0.49685 -3.29035,3.47673 0.9987,4.68152 -4.32334,-2.05494 z"
           transform="matrix(0.26458333,0,0,0.26458333,0.18701892,1.8701892)"
           inkscape:transform-center-x="0.023756928"
           inkscape:transform-center-y="-0.1593874" />
        <path
           sodipodi:type="star"
           style="opacity:0.651639;fill:#0000ff;fill-opacity:1;fill-rule:evenodd;stroke:none;stroke-width:3.41244;stroke-miterlimit:4;stroke-dasharray:none;stop-color:#000000"
           id="path10431"
           inkscape:flatsided="false"
           sodipodi:sides="5"
           sodipodi:cx="811.03088"
           sodipodi:cy="715.73309"
           sodipodi:r1="6.3221974"
           sodipodi:r2="3.1610987"
           sodipodi:arg1="1.2490458"
           sodipodi:arg2="1.8773643"
           inkscape:rounded="-3.46945e-18"
           inkscape:randomized="0"
           d="m 813.03014,721.73086 -2.95324,-2.98405 -4.13242,0.7411 1.9254,-3.73082 -1.98182,-3.70116 4.1432,0.67828 2.90759,-3.02854 0.63524,4.15002 3.77881,1.82941 -3.7506,1.88657 z"
           transform="scale(0.26458333)"
           inkscape:transform-center-x="-0.15599318"
           inkscape:transform-center-y="-0.0039270825" />
        <path
           sodipodi:type="star"
           style="opacity:0.651639;fill:#0000ff;fill-opacity:1;fill-rule:evenodd;stroke:none;stroke-width:4.70883;stroke-miterlimit:4;stroke-dasharray:none;stop-color:#000000"
           id="path10595"
           inkscape:flatsided="false"
           sodipodi:sides="5"
           sodipodi:cx="563.12335"
           sodipodi:cy="777.70996"
           sodipodi:r1="15.225868"
           sodipodi:r2="7.6129341"
           sodipodi:arg1="1.1659045"
           sodipodi:arg2="1.7942231"
           inkscape:rounded="-3.46945e-18"
           inkscape:randomized="0"
           d="m 569.12112,791.70474 -7.68458,-6.57107 -9.7696,2.60513 3.87479,-9.33905 -5.4966,-8.48641 10.07934,0.79923 6.37251,-7.85002 2.35458,9.83299 9.43503,3.63483 -8.62413,5.2779 z"
           transform="matrix(0.19173977,0,0,0.19173977,114.34578,37.855391)"
           inkscape:transform-center-x="-0.19988413"
           inkscape:transform-center-y="-0.081747004" />
        <path
           sodipodi:type="star"
           style="opacity:0.651639;fill:#0000ff;fill-opacity:1;fill-rule:evenodd;stroke:none;stroke-width:2.63731;stroke-miterlimit:4;stroke-dasharray:none;stop-color:#000000"
           id="path10597"
           inkscape:flatsided="false"
           sodipodi:sides="5"
           sodipodi:cx="811.03088"
           sodipodi:cy="715.73309"
           sodipodi:r1="6.3221974"
           sodipodi:r2="3.1610987"
           sodipodi:arg1="1.2490458"
           sodipodi:arg2="1.8773643"
           inkscape:rounded="-3.46945e-18"
           inkscape:randomized="0"
           d="m 813.03014,721.73086 -2.95324,-2.98405 -4.13242,0.7411 1.9254,-3.73082 -1.98182,-3.70116 4.1432,0.67828 2.90759,-3.02854 0.63524,4.15002 3.77881,1.82941 -3.7506,1.88657 z"
           transform="matrix(0.34234466,0,0,0.34234466,-60.235684,-49.951129)"
           inkscape:transform-center-x="-0.20183683"
           inkscape:transform-center-y="-0.0050834612" />
      </g>
      <g
         id="g10819"
         transform="matrix(1.1485633,0,0,1.1495055,-151.05056,-197.85448)"
         style="display:inline;opacity:1;stroke-width:0.870286">
        <path
           style="display:inline;fill:#efab4b;fill-opacity:1;stroke:#000000;stroke-width:0.902888;stroke-linecap:butt;stroke-linejoin:miter;stroke-miterlimit:4;stroke-dasharray:none;stroke-opacity:1"
           d="m 182.45147,209.40089 c 2.10505,-0.26313 6.79857,-9.31892 8.419,-0.80181 2.4055,8.41899 16.4371,32.07234 22.4507,10.82442 6.0135,-21.24793 -8.60194,-42.88509 -24.0543,-42.49586 -25.08305,0.63182 -39.2886,27.6624 -25.6579,46.9058 13.6308,19.24341 23.51166,-18.60765 23.51166,-18.60765"
           id="path867"
           sodipodi:nodetypes="cccscc" />
        <g
           id="g10812"
           style="stroke-width:0.870286">
          <path
             style="opacity:0.141393;fill:#ffffff;stroke:none;stroke-width:0.230267px;stroke-linecap:butt;stroke-linejoin:miter;stroke-opacity:1"
             d="m 199.58105,180.50347 c 0,0 -5.14072,-4.4889 -12.67853,-3.29872 -7.53782,1.19018 -14.74032,5.00252 -16.72396,6.98615 -1.98363,1.98364 -8.20372,7.36214 -10.3196,14.89995 -2.11588,7.53782 -0.3306,14.6789 -0.3306,14.6789 0,0 4.21502,-36.08745 40.05269,-33.26628 z"
             id="path3117"
             sodipodi:nodetypes="cssscc" />
          <path
             style="opacity:0.190574;fill:#1a1a1a;stroke:none;stroke-width:0.230267px;stroke-linecap:butt;stroke-linejoin:miter;stroke-opacity:1"
             d="m 185.6779,208.58915 c 0,0 -4.67547,13.8394 -8.41585,16.7382 -3.74038,2.89879 0.18702,-8.35351 8.41585,-16.7382 z"
             id="path4536" />
          <path
             style="opacity:0.190574;fill:#4d4d4d;stroke:none;stroke-width:0.230267px;stroke-linecap:butt;stroke-linejoin:miter;stroke-opacity:1"
             d="m 212.29305,196.95294 c 0,0 -2.20389,-3.66925 -1.9394,-0.49543 0.26448,3.17381 1.72305,10.56334 1.32632,14.39837 -0.39672,3.83502 -3.73487,11.81624 -1.619,12.21297 2.11588,0.39673 3.60928,-5.81866 3.60928,-5.81866 0,0 1.92886,-11.30478 -1.3772,-20.29725 z"
             id="path4887"
             sodipodi:nodetypes="cssscc" />
        </g>
      </g>
      <g
         id="g10660"
         style="display:inline;stroke-width:0.870286"
         transform="matrix(1.1485633,0,0,1.1495055,-150.91939,-200.1179)">
        <g
           id="g10643"
           style="display:inline;opacity:1;stroke-width:0.870286">
          <ellipse
             style="opacity:1;fill:#000000;fill-opacity:1;fill-rule:evenodd;stroke:none;stroke-width:0.902888;stroke-miterlimit:4;stroke-dasharray:none;stop-color:#000000"
             id="path7194"
             cx="193.17862"
             cy="189.86044"
             rx="1.8518859"
             ry="1.8518864" />
          <ellipse
             style="opacity:1;fill:#ffffff;fill-opacity:1;fill-rule:evenodd;stroke:none;stroke-width:0.902888;stroke-miterlimit:4;stroke-dasharray:none;stop-color:#000000"
             id="ellipse7504"
             cx="192.71577"
             cy="189.3537"
             rx="0.59558362"
             ry="0.59558374" />
          <ellipse
             style="opacity:1;fill:#000000;fill-opacity:1;fill-rule:evenodd;stroke:none;stroke-width:0.902888;stroke-miterlimit:4;stroke-dasharray:none;stop-color:#000000"
             id="ellipse7524"
             cx="179.60173"
             cy="191.57959"
             rx="1.8518859"
             ry="1.8518864" />
          <ellipse
             style="opacity:1;fill:#ffffff;fill-opacity:1;fill-rule:evenodd;stroke:none;stroke-width:0.902888;stroke-miterlimit:4;stroke-dasharray:none;stop-color:#000000"
             id="ellipse7526"
             cx="179.13892"
             cy="191.07285"
             rx="0.59558362"
             ry="0.59558374" />
        </g>
        <path
           style="display:inline;fill:#1a1a1a;stroke:#000000;stroke-width:0.230267px;stroke-linecap:butt;stroke-linejoin:miter;stroke-opacity:1"
           d="m 178.09238,198.26852 c 0,0 1.65303,6.61212 8.66188,5.48806 7.00884,-1.12406 6.08315,-7.67006 6.08315,-7.67006 0,0 -9.71982,3.4383 -14.74503,2.182 z"
           id="path7561" />
        <path
           style="display:inline;fill:#ff00ff;stroke:none;stroke-width:0.230267px;stroke-linecap:butt;stroke-linejoin:miter;stroke-opacity:1"
           d="m 181.66292,202.83088 c 0,0 2.24812,1.19018 4.23176,0.85958 1.98364,-0.33061 1.98364,-0.33061 1.98364,-0.33061 0,0 1.65302,-0.46285 2.11587,-0.85957 0.46285,-0.39673 1.7412,-1.50977 1.84039,-1.87344 0.0992,-0.36366 0.0992,-0.36366 0.0992,-0.36366 0,0 -3.66973,-0.56203 -4.52931,0.36366 -0.85958,0.9257 -0.79345,0.9257 -0.79345,0.9257 0,0 -1.37753,-1.49875 -4.94808,1.27834 z"
           id="path7849" />
        <ellipse
           style="opacity:0.479508;fill:#ff0000;fill-opacity:0.602871;fill-rule:evenodd;stroke:none;stroke-width:0.942162;stroke-miterlimit:4;stroke-dasharray:none;stop-color:#000000"
           id="path8419"
           cx="23.1059"
           cy="253.77115"
           rx="1.6521189"
           ry="2.3885667"
           transform="matrix(0.97354964,-0.2284756,0.59536448,0.80345575,0,0)" />
        <ellipse
           style="opacity:0.479508;fill:#ff0000;fill-opacity:0.602871;fill-rule:evenodd;stroke:none;stroke-width:0.942162;stroke-miterlimit:4;stroke-dasharray:none;stop-color:#000000"
           id="ellipse8789"
           cx="-300.47769"
           cy="156.01709"
           rx="1.6521189"
           ry="2.3885667"
           transform="matrix(-0.97354964,-0.2284756,-0.59536448,0.80345575,0,0)" />
      </g>
    </g>
  </g>
</svg>
